<?xml version="1.0" encoding="UTF-8" standalone="no"?>
<svg
   xmlns:dc="http://purl.org/dc/elements/1.1/"
   xmlns:cc="http://creativecommons.org/ns#"
   xmlns:rdf="http://www.w3.org/1999/02/22-rdf-syntax-ns#"
   xmlns:svg="http://www.w3.org/2000/svg"
   xmlns="http://www.w3.org/2000/svg"
   xmlns:sodipodi="http://sodipodi.sourceforge.net/DTD/sodipodi-0.dtd"
   xmlns:inkscape="http://www.inkscape.org/namespaces/inkscape"
   version="1.1"
   viewBox="0 0 278.09376 372.84485"
   stroke-miterlimit="10"
   id="svg3850"
   inkscape:version="0.48.3.1 r9886"
   width="100%"
   height="100%"
   sodipodi:docname="OpenStack HA without shared storage.svg"
   style="fill:none;stroke:none">
  <metadata
     id="metadata3945">
    <rdf:RDF>
      <cc:Work
         rdf:about="">
        <dc:format>image/svg+xml</dc:format>
        <dc:type
           rdf:resource="http://purl.org/dc/dcmitype/StillImage" />
        <dc:title></dc:title>
      </cc:Work>
    </rdf:RDF>
  </metadata>
  <defs
     id="defs3943" />
  <sodipodi:namedview
     pagecolor="#ffffff"
     bordercolor="#666666"
     borderopacity="1"
     objecttolerance="10"
     gridtolerance="10"
     guidetolerance="10"
     inkscape:pageopacity="0"
     inkscape:pageshadow="2"
     inkscape:window-width="1231"
     inkscape:window-height="776"
     id="namedview3941"
     showgrid="false"
     fit-margin-top="0"
     fit-margin-left="0"
     fit-margin-right="0"
     fit-margin-bottom="0"
     inkscape:zoom="0.92709556"
     inkscape:cx="493.85021"
     inkscape:cy="182.25833"
     inkscape:window-x="49"
     inkscape:window-y="24"
     inkscape:window-maximized="1"
     inkscape:current-layer="svg3850" />
  <clipPath
     id="p.0">
    <path
       d="M 0,0 960,0 960,720 0,720 0,0 z"
       clip-rule="nonzero"
       id="path3853"
       inkscape:connector-curvature="0" />
  </clipPath>
  <path
     style="fill:#cfe2f3;fill-rule:nonzero"
     inkscape:connector-curvature="0"
     id="path3859"
     d="m 0.9933113,331.84664 103.2126187,0 0,40 -103.2126187,0 z" />
  <path
     style="stroke:#000000;stroke-width:2;stroke-linecap:butt;stroke-linejoin:round"
     inkscape:connector-curvature="0"
     id="path3861"
     d="m 0.9933113,331.84664 103.2126187,0 0,40 -103.2126187,0 z" />
  <path
     style="fill:#000000;fill-rule:nonzero"
     inkscape:connector-curvature="0"
     id="path3863"
     d="m 18.198651,351.73727 q 0,-1.01563 0.35937,-2.03125 0.35938,-1.01563 1.04688,-1.8125 0.6875,-0.8125 1.6875,-1.3125 1.01562,-0.5 2.29687,-0.5 1.51563,0 2.59375,0.6875 1.07813,0.6875 1.59375,1.79687 l -0.89062,0.53125 q -0.26563,-0.54687 -0.65625,-0.9375 -0.375,-0.39062 -0.82813,-0.625 -0.45312,-0.23437 -0.9375,-0.34375 -0.46875,-0.10937 -0.9375,-0.10937 -1.01562,0 -1.8125,0.42187 -0.78125,0.42188 -1.3125,1.09375 -0.53125,0.67188 -0.8125,1.51563 -0.26562,0.82812 -0.26562,1.6875 0,0.95312 0.32812,1.8125 0.32813,0.85937 0.89063,1.53125 0.5625,0.65625 1.34375,1.0625 0.78125,0.39062 1.6875,0.39062 0.48437,0 0.98437,-0.125 0.5,-0.125 0.96875,-0.39062 0.48438,-0.26563 0.875,-0.65625 0.40625,-0.39063 0.67188,-0.95313 l 0.9375,0.48438 q -0.28125,0.64062 -0.78125,1.14062 -0.48438,0.48438 -1.09375,0.82813 -0.60938,0.32812 -1.29688,0.5 -0.67187,0.17187 -1.32812,0.17187 -1.17188,0 -2.15625,-0.5 -0.96875,-0.51562 -1.67188,-1.34375 -0.70312,-0.82812 -1.09375,-1.875 -0.39062,-1.04687 -0.39062,-2.14062 z m 15.08652,5.92187 q -0.90625,0 -1.67188,-0.34375 -0.75,-0.34375 -1.3125,-0.9375 -0.54687,-0.59375 -0.85937,-1.375 -0.29688,-0.78125 -0.29688,-1.64062 0,-0.89063 0.3125,-1.67188 0.3125,-0.78125 0.85938,-1.375 0.5625,-0.59375 1.3125,-0.9375 0.76562,-0.35937 1.65625,-0.35937 0.89062,0 1.65625,0.35937 0.76562,0.34375 1.3125,0.9375 0.54687,0.59375 0.85937,1.375 0.3125,0.78125 0.3125,1.67188 0,0.85937 -0.3125,1.64062 -0.3125,0.78125 -0.85937,1.375 -0.54688,0.59375 -1.3125,0.9375 -0.76563,0.34375 -1.65625,0.34375 z m -3.01563,-4.28125 q 0,0.70313 0.21875,1.3125 0.23438,0.59375 0.64063,1.04688 0.42187,0.45312 0.96875,0.71875 0.54687,0.25 1.17187,0.25 0.625,0 1.17188,-0.26563 0.5625,-0.26562 0.96875,-0.71875 0.42187,-0.45312 0.65625,-1.0625 0.25,-0.60937 0.25,-1.3125 0,-0.6875 -0.25,-1.29687 -0.23438,-0.625 -0.65625,-1.07813 -0.40625,-0.45312 -0.95313,-0.71875 -0.54687,-0.26562 -1.17187,-0.26562 -0.625,0 -1.17188,0.26562 -0.54687,0.26563 -0.96875,0.73438 -0.40625,0.45312 -0.64062,1.07812 -0.23438,0.60938 -0.23438,1.3125 z m 13.09815,-3.25 q -1.10938,0.0313 -1.92188,0.60938 -0.8125,0.57812 -1.15625,1.57812 l 0,5.1875 -1.07812,0 0,-8.34375 1.01562,0 0,2 q 0.4375,-0.875 1.14063,-1.45312 0.70312,-0.59375 1.51562,-0.59375 0.14063,0 0.26563,0 0.14062,0 0.21875,0.0156 l 0,1 z m 5.05353,7.53125 q -0.90625,0 -1.67188,-0.34375 -0.75,-0.34375 -1.3125,-0.9375 -0.54687,-0.59375 -0.85937,-1.375 -0.29688,-0.78125 -0.29688,-1.64062 0,-0.89063 0.3125,-1.67188 0.3125,-0.78125 0.85938,-1.375 0.5625,-0.59375 1.3125,-0.9375 0.76562,-0.35937 1.65625,-0.35937 0.89062,0 1.65625,0.35937 0.76562,0.34375 1.3125,0.9375 0.54687,0.59375 0.85937,1.375 0.3125,0.78125 0.3125,1.67188 0,0.85937 -0.3125,1.64062 -0.3125,0.78125 -0.85937,1.375 -0.54688,0.59375 -1.3125,0.9375 -0.76563,0.34375 -1.65625,0.34375 z m -3.01563,-4.28125 q 0,0.70313 0.21875,1.3125 0.23438,0.59375 0.64063,1.04688 0.42187,0.45312 0.96875,0.71875 0.54687,0.25 1.17187,0.25 0.625,0 1.17188,-0.26563 0.5625,-0.26562 0.96875,-0.71875 0.42187,-0.45312 0.65625,-1.0625 0.25,-0.60937 0.25,-1.3125 0,-0.6875 -0.25,-1.29687 -0.23438,-0.625 -0.65625,-1.07813 -0.40625,-0.45312 -0.95313,-0.71875 -0.54687,-0.26562 -1.17187,-0.26562 -0.625,0 -1.17188,0.26562 -0.54687,0.26563 -0.96875,0.73438 -0.40625,0.45312 -0.64062,1.07812 -0.23438,0.60938 -0.23438,1.3125 z m 11.73877,4.28125 q -0.98437,0 -1.90625,-0.3125 -0.92187,-0.32812 -1.59375,-0.9375 l 0.48438,-0.73437 q 0.70312,0.57812 1.4375,0.875 0.73437,0.28125 1.5625,0.28125 1,0 1.59375,-0.40625 0.60937,-0.40625 0.60937,-1.15625 0,-0.35938 -0.15625,-0.59375 -0.15625,-0.23438 -0.46875,-0.40625 -0.3125,-0.17188 -0.79687,-0.3125 -0.46875,-0.14063 -1.09375,-0.28125 -0.71875,-0.17188 -1.25,-0.34375 -0.51563,-0.1875 -0.85938,-0.40625 -0.34375,-0.21875 -0.51562,-0.54688 -0.17188,-0.32812 -0.17188,-0.82812 0,-0.625 0.25,-1.09375 0.25,-0.48438 0.67188,-0.79688 0.42187,-0.3125 0.98437,-0.46875 0.57813,-0.17187 1.21875,-0.17187 0.95313,0 1.73438,0.3125 0.79687,0.3125 1.26562,0.82812 l -0.51562,0.64063 q -0.46875,-0.48438 -1.14063,-0.71875 -0.65625,-0.23438 -1.375,-0.23438 -0.4375,0 -0.8125,0.0937 -0.35937,0.0781 -0.64062,0.26563 -0.28125,0.1875 -0.4375,0.48437 -0.15625,0.29688 -0.15625,0.70313 0,0.32812 0.10937,0.54687 0.10938,0.20313 0.35938,0.35938 0.26562,0.14062 0.65625,0.26562 0.39062,0.125 0.95312,0.25 0.79688,0.1875 1.40625,0.39063 0.60938,0.1875 1.01563,0.45312 0.40625,0.25 0.60937,0.625 0.21875,0.35938 0.21875,0.875 0,1.15625 -0.89062,1.82813 -0.875,0.67187 -2.35938,0.67187 z m 5.4639,2.42188 q 0.0937,0.0156 0.17187,0.0156 0.0781,0.0156 0.15625,0.0156 0.15625,0 0.34375,-0.0313 0.1875,-0.0313 0.26563,-0.0625 0.0781,-0.0313 0.15625,-0.14063 0.0937,-0.10937 0.23437,-0.375 0.14063,-0.25 0.34375,-0.73437 0.20313,-0.46875 0.53125,-1.26563 l -3.64062,-8.34375 1.14062,0 3.09375,7.32813 2.84375,-7.32813 1.03125,0 -4.32812,10.76563 q -0.23438,0.59375 -0.65625,0.875 -0.40625,0.28125 -1.14063,0.28125 -0.29687,0 -0.54687,-0.0469 l 0,-0.95312 z m 15.20324,-2.57813 -1.07812,0 0,-4.65625 q 0,-1.48437 -0.4375,-2.15625 -0.4375,-0.67187 -1.34375,-0.67187 -0.48438,0 -0.96875,0.17187 -0.46875,0.17188 -0.89063,0.5 -0.40625,0.3125 -0.71875,0.76563 -0.3125,0.4375 -0.48437,0.9375 l 0,5.10937 -1.07813,0 0,-8.34375 0.98438,0 0,1.89063 q 0.26562,-0.4375 0.64062,-0.8125 0.375,-0.375 0.82813,-0.64063 0.46875,-0.28125 0.98437,-0.42187 0.53125,-0.15625 1.09375,-0.15625 0.70313,0 1.17188,0.26562 0.46875,0.25 0.75,0.71875 0.29687,0.45313 0.42187,1.125 0.125,0.67188 0.125,1.5 l 0,4.875 z m 1.71717,-4.1875 q 0,-0.89062 0.29687,-1.67187 0.3125,-0.78125 0.85938,-1.35938 0.5625,-0.59375 1.32812,-0.92187 0.76563,-0.34375 1.6875,-0.34375 1.1875,0 2.0625,0.54687 0.89063,0.53125 1.32813,1.4375 l -1.04688,0.34375 q -0.35937,-0.64062 -0.98437,-1 -0.625,-0.35937 -1.39063,-0.35937 -0.64062,0 -1.1875,0.25 -0.54687,0.25 -0.96875,0.70312 -0.40625,0.4375 -0.64062,1.04688 -0.21875,0.60937 -0.21875,1.32812 0,0.70313 0.23437,1.32813 0.23438,0.625 0.65625,1.07812 0.42188,0.45313 0.96875,0.71875 0.54688,0.26563 1.17188,0.26563 0.40625,0 0.79687,-0.10938 0.39063,-0.125 0.71875,-0.3125 0.34375,-0.20312 0.57813,-0.45312 0.25,-0.26563 0.34375,-0.54688 l 1.04687,0.3125 q -0.17187,0.45313 -0.51562,0.82813 -0.32813,0.375 -0.78125,0.65625 -0.45313,0.28125 -1.01563,0.42187 -0.54687,0.15625 -1.14062,0.15625 -0.90625,0 -1.67188,-0.34375 -0.76562,-0.34375 -1.32812,-0.9375 -0.5625,-0.60937 -0.875,-1.39062 -0.3125,-0.78125 -0.3125,-1.67188 z" />
  <path
     style="fill:#cfe2f3;fill-rule:nonzero"
     inkscape:connector-curvature="0"
     id="path3865"
     d="m 0.9933113,291.84664 103.2126187,0 0,40 -103.2126187,0 z" />
  <path
     style="stroke:#000000;stroke-width:2;stroke-linecap:butt;stroke-linejoin:round"
     inkscape:connector-curvature="0"
     id="path3867"
     d="m 0.9933113,291.84664 103.2126187,0 0,40 -103.2126187,0 z" />
  <path
     style="fill:#000000;fill-rule:nonzero"
     inkscape:connector-curvature="0"
     id="path3869"
     d="m 12.157051,317.50289 0,-11.35938 4.70312,0 q 0.73438,0 1.34375,0.3125 0.625,0.3125 1.07813,0.8125 0.45312,0.5 0.6875,1.14063 0.25,0.64062 0.25,1.29687 0,0.70313 -0.23438,1.35938 -0.21875,0.64062 -0.65625,1.14062 -0.4375,0.5 -1.04687,0.8125 -0.59375,0.29688 -1.32813,0.29688 l -3.6875,0 0,4.1875 -1.10937,0 z m 1.10937,-5.1875 3.625,0 q 0.5,0 0.90625,-0.20313 0.40625,-0.21875 0.6875,-0.57812 0.29688,-0.375 0.45313,-0.84375 0.17187,-0.46875 0.17187,-0.98438 0,-0.51562 -0.1875,-0.98437 -0.1875,-0.48438 -0.5,-0.82813 -0.3125,-0.35937 -0.73437,-0.5625 -0.42188,-0.20312 -0.89063,-0.20312 l -3.53125,0 0,5.1875 z m 10.76413,5.34375 q -0.64062,0 -1.17187,-0.1875 -0.51563,-0.20313 -0.90625,-0.54688 -0.375,-0.35937 -0.57813,-0.82812 -0.20312,-0.46875 -0.20312,-0.98438 0,-0.5625 0.25,-1.03125 0.26562,-0.48437 0.71875,-0.8125 0.46875,-0.34375 1.10937,-0.51562 0.65625,-0.1875 1.4375,-0.1875 0.625,0 1.28125,0.10937 0.65625,0.10938 1.17188,0.3125 l 0,-0.75 q 0,-1.10937 -0.64063,-1.75 -0.625,-0.64062 -1.70312,-0.64062 -0.67188,0 -1.34375,0.25 -0.65625,0.25 -1.34375,0.73437 l -0.375,-0.71875 q 0.8125,-0.54687 1.57812,-0.8125 0.76563,-0.28125 1.59375,-0.28125 1.53125,0 2.42188,0.89063 0.89062,0.875 0.89062,2.42187 l 0,3.76563 q 0,0.45312 0.39063,0.45312 l 0,0.95313 q -0.125,0.0156 -0.25,0.0156 -0.10938,0.0156 -0.1875,0.0156 -0.3125,0 -0.57813,-0.1875 -0.26562,-0.20313 -0.29687,-0.57813 l -0.0313,-0.65625 q -0.54688,0.73438 -1.4375,1.14063 -0.89063,0.40625 -1.79688,0.40625 z m 0.26563,-0.82813 q 0.73437,0 1.4375,-0.3125 0.71875,-0.3125 1.125,-0.85937 0.10937,-0.14063 0.1875,-0.29688 0.0937,-0.17187 0.0937,-0.32812 l 0,-1.35938 q -0.54688,-0.20312 -1.14063,-0.3125 -0.59375,-0.10937 -1.15625,-0.10937 -1.15625,0 -1.89062,0.46875 -0.73438,0.46875 -0.73438,1.29687 0,0.34375 0.125,0.67188 0.14063,0.3125 0.40625,0.57812 0.26563,0.25 0.64063,0.40625 0.39062,0.15625 0.90625,0.15625 z m 5.75241,-3.51562 q 0,-0.89063 0.29688,-1.67188 0.3125,-0.78125 0.85937,-1.35937 0.5625,-0.59375 1.32813,-0.92188 0.76562,-0.34375 1.6875,-0.34375 1.1875,0 2.0625,0.54688 0.89062,0.53125 1.32812,1.4375 l -1.04687,0.34375 q -0.35938,-0.64063 -0.98438,-1 -0.625,-0.35938 -1.39062,-0.35938 -0.64063,0 -1.1875,0.25 -0.54688,0.25 -0.96875,0.70313 -0.40625,0.4375 -0.64063,1.04687 -0.21875,0.60938 -0.21875,1.32813 0,0.70312 0.23438,1.32812 0.23437,0.625 0.65625,1.07813 0.42187,0.45312 0.96875,0.71875 0.54687,0.26562 1.17187,0.26562 0.40625,0 0.79688,-0.10937 0.39062,-0.125 0.71875,-0.3125 0.34375,-0.20313 0.57812,-0.45313 0.25,-0.26562 0.34375,-0.54687 l 1.04688,0.3125 q -0.17188,0.45312 -0.51563,0.82812 -0.32812,0.375 -0.78125,0.65625 -0.45312,0.28125 -1.01562,0.42188 -0.54688,0.15625 -1.14063,0.15625 -0.90625,0 -1.67187,-0.34375 -0.76563,-0.34375 -1.32813,-0.9375 -0.5625,-0.60938 -0.875,-1.39063 -0.3125,-0.78125 -0.3125,-1.67187 z m 12.98752,4.34375 q -0.90625,0 -1.67188,-0.34375 -0.76562,-0.34375 -1.32812,-0.9375 -0.5625,-0.60938 -0.875,-1.39063 -0.3125,-0.78125 -0.3125,-1.67187 0,-0.89063 0.3125,-1.65625 0.3125,-0.78125 0.875,-1.35938 0.5625,-0.59375 1.3125,-0.9375 0.76562,-0.34375 1.67187,-0.34375 0.92188,0 1.67188,0.34375 0.76562,0.34375 1.29687,0.9375 0.54688,0.59375 0.84375,1.35938 0.3125,0.76562 0.3125,1.64062 0,0.125 -0.0156,0.25 0,0.125 -0.0156,0.17188 l -7.10937,0 q 0.0469,0.67187 0.3125,1.25 0.26562,0.5625 0.67187,0.98437 0.40625,0.40625 0.9375,0.64063 0.53125,0.23437 1.14063,0.23437 0.42187,0 0.8125,-0.10937 0.40625,-0.10938 0.73437,-0.29688 0.34375,-0.20312 0.60938,-0.48437 0.26562,-0.28125 0.40625,-0.60938 l 0.95312,0.25 q -0.20312,0.46875 -0.5625,0.84375 -0.34375,0.375 -0.8125,0.65625 -0.45312,0.28125 -1.01562,0.42188 -0.5625,0.15625 -1.15625,0.15625 z m 3.07812,-4.76563 q -0.0469,-0.67187 -0.3125,-1.21875 -0.26562,-0.5625 -0.67187,-0.95312 -0.40625,-0.40625 -0.95313,-0.625 -0.54687,-0.21875 -1.15625,-0.21875 -0.60937,0 -1.15625,0.21875 -0.53125,0.21875 -0.95312,0.625 -0.40625,0.39062 -0.65625,0.95312 -0.23438,0.5625 -0.28125,1.21875 l 6.14062,0 z m 15.06388,4.60938 -1.07813,0 0,-4.65625 q 0,-1.45313 -0.46875,-2.14063 -0.45312,-0.6875 -1.375,-0.6875 -0.48437,0 -0.90625,0.17188 -0.42187,0.17187 -0.78125,0.5 -0.35937,0.3125 -0.64062,0.76562 -0.26563,0.4375 -0.40625,0.95313 l 0,5.09375 -1.09375,0 0,-4.65625 q 0,-1.48438 -0.45313,-2.15625 -0.4375,-0.67188 -1.375,-0.67188 -0.9375,0 -1.67187,0.65625 -0.73438,0.65625 -1.0625,1.71875 l 0,5.10938 -1.07813,0 0,-8.34375 0.98438,0 0,1.89062 q 0.51562,-0.95312 1.34375,-1.48437 0.84375,-0.54688 1.84375,-0.54688 1.0625,0 1.70312,0.59375 0.64063,0.59375 0.76563,1.54688 1.15625,-2.14063 3.23437,-2.14063 0.6875,0 1.17188,0.26563 0.48437,0.25 0.78125,0.71875 0.29687,0.46875 0.42187,1.14062 0.14063,0.65625 0.14063,1.48438 l 0,4.875 z m 4.46853,0.15625 q -0.64062,0 -1.17187,-0.1875 -0.51563,-0.20313 -0.90625,-0.54688 -0.375,-0.35937 -0.57813,-0.82812 -0.20312,-0.46875 -0.20312,-0.98438 0,-0.5625 0.25,-1.03125 0.26562,-0.48437 0.71875,-0.8125 0.46875,-0.34375 1.10937,-0.51562 0.65625,-0.1875 1.4375,-0.1875 0.625,0 1.28125,0.10937 0.65625,0.10938 1.17188,0.3125 l 0,-0.75 q 0,-1.10937 -0.64063,-1.75 -0.625,-0.64062 -1.70312,-0.64062 -0.67188,0 -1.34375,0.25 -0.65625,0.25 -1.34375,0.73437 l -0.375,-0.71875 q 0.8125,-0.54687 1.57812,-0.8125 0.76563,-0.28125 1.59375,-0.28125 1.53125,0 2.42188,0.89063 0.89062,0.875 0.89062,2.42187 l 0,3.76563 q 0,0.45312 0.39063,0.45312 l 0,0.95313 q -0.125,0.0156 -0.25,0.0156 -0.10938,0.0156 -0.1875,0.0156 -0.3125,0 -0.57813,-0.1875 -0.26562,-0.20313 -0.29687,-0.57813 l -0.0313,-0.65625 q -0.54688,0.73438 -1.4375,1.14063 -0.89063,0.40625 -1.79688,0.40625 z m 0.26563,-0.82813 q 0.73437,0 1.4375,-0.3125 0.71875,-0.3125 1.125,-0.85937 0.10937,-0.14063 0.1875,-0.29688 0.0937,-0.17187 0.0937,-0.32812 l 0,-1.35938 q -0.54688,-0.20312 -1.14063,-0.3125 -0.59375,-0.10937 -1.15625,-0.10937 -1.15625,0 -1.89062,0.46875 -0.73438,0.46875 -0.73438,1.29687 0,0.34375 0.125,0.67188 0.14063,0.3125 0.40625,0.57812 0.26563,0.25 0.64063,0.40625 0.39062,0.15625 0.90625,0.15625 z m 12.25241,0.67188 -3.07813,-4.26563 -1.79687,1.65625 0,2.60938 -1.07813,0 0,-11.6875 1.07813,0 0,7.9375 4.6875,-4.5625 1.23437,0 -3.40625,3.40625 3.53125,4.90625 -1.17187,0 z m 6.11951,0.15625 q -0.90625,0 -1.67188,-0.34375 -0.76562,-0.34375 -1.32812,-0.9375 -0.5625,-0.60938 -0.875,-1.39063 -0.3125,-0.78125 -0.3125,-1.67187 0,-0.89063 0.3125,-1.65625 0.3125,-0.78125 0.875,-1.35938 0.5625,-0.59375 1.3125,-0.9375 0.76562,-0.34375 1.67187,-0.34375 0.92188,0 1.67188,0.34375 0.76562,0.34375 1.29687,0.9375 0.54688,0.59375 0.84375,1.35938 0.3125,0.76562 0.3125,1.64062 0,0.125 -0.0156,0.25 0,0.125 -0.0156,0.17188 l -7.10937,0 q 0.0469,0.67187 0.3125,1.25 0.26562,0.5625 0.67187,0.98437 0.40625,0.40625 0.9375,0.64063 0.53125,0.23437 1.14063,0.23437 0.42187,0 0.8125,-0.10937 0.40625,-0.10938 0.73437,-0.29688 0.34375,-0.20312 0.60938,-0.48437 0.26562,-0.28125 0.40625,-0.60938 l 0.95312,0.25 q -0.20312,0.46875 -0.5625,0.84375 -0.34375,0.375 -0.8125,0.65625 -0.45312,0.28125 -1.01562,0.42188 -0.5625,0.15625 -1.15625,0.15625 z m 3.07812,-4.76563 q -0.0469,-0.67187 -0.3125,-1.21875 -0.26562,-0.5625 -0.67187,-0.95312 -0.40625,-0.40625 -0.95313,-0.625 -0.54687,-0.21875 -1.15625,-0.21875 -0.60937,0 -1.15625,0.21875 -0.53125,0.21875 -0.95312,0.625 -0.40625,0.39062 -0.65625,0.95312 -0.23438,0.5625 -0.28125,1.21875 l 6.14062,0 z m 6.82953,-2.76562 q -1.10937,0.0313 -1.92187,0.60937 -0.8125,0.57813 -1.15625,1.57813 l 0,5.1875 -1.07813,0 0,-8.34375 1.01563,0 0,2 q 0.4375,-0.875 1.14062,-1.45313 0.70313,-0.59375 1.51563,-0.59375 0.14062,0 0.26562,0 0.14063,0 0.21875,0.0156 l 0,1 z" />
  <path
     style="fill:#cfe2f3;fill-rule:nonzero"
     inkscape:connector-curvature="0"
     id="path3871"
     d="m 0.9933113,251.84664 103.2126187,0 0,40 -103.2126187,0 z" />
  <path
     style="stroke:#000000;stroke-width:2;stroke-linecap:butt;stroke-linejoin:round"
     inkscape:connector-curvature="0"
     id="path3873"
     d="m 0.9933113,251.84664 103.2126187,0 0,40 -103.2126187,0 z" />
  <path
     style="fill:#000000;fill-rule:nonzero"
     inkscape:connector-curvature="0"
     id="path3875"
     d="m 17.594421,277.61227 q -0.85937,0 -1.57812,-0.35938 -0.71875,-0.35937 -1.23438,-0.95312 -0.51562,-0.59375 -0.8125,-1.35938 -0.28125,-0.76562 -0.28125,-1.57812 0,-0.875 0.28125,-1.65625 0.28125,-0.79688 0.78125,-1.39063 0.51563,-0.59375 1.21875,-0.9375 0.71875,-0.35937 1.59375,-0.35937 1.0625,0 1.84375,0.54687 0.79688,0.53125 1.35938,1.34375 l 0,-1.75 0.96875,0 0,8.375 q 0,0.85938 -0.32813,1.51563 -0.32812,0.67187 -0.89062,1.125 -0.54688,0.45312 -1.29688,0.67187 -0.75,0.21875 -1.57812,0.21875 -1.42188,0 -2.3125,-0.51562 -0.875,-0.5 -1.42188,-1.35938 l 0.67188,-0.53125 q 0.5,0.79688 1.3125,1.17188 0.8125,0.375 1.75,0.375 0.60937,0 1.15625,-0.17188 0.54687,-0.15625 0.95312,-0.48437 0.42188,-0.32813 0.65625,-0.84375 0.23438,-0.5 0.23438,-1.17188 l 0,-1.64062 q -0.48438,0.79687 -1.3125,1.26562 -0.82813,0.45313 -1.73438,0.45313 z m 0.29688,-0.90625 q 0.48437,0 0.9375,-0.17188 0.46875,-0.1875 0.84375,-0.48437 0.39062,-0.29688 0.64062,-0.65625 0.25,-0.375 0.32813,-0.75 l 0,-2.57813 q -0.17188,-0.45312 -0.48438,-0.82812 -0.3125,-0.39063 -0.70312,-0.65625 -0.375,-0.28125 -0.8125,-0.4375 -0.4375,-0.15625 -0.89063,-0.15625 -0.70312,0 -1.25,0.29687 -0.54687,0.29688 -0.9375,0.78125 -0.375,0.46875 -0.57812,1.07813 -0.1875,0.60937 -0.1875,1.23437 0,0.67188 0.23437,1.28125 0.23438,0.60938 0.65625,1.0625 0.42188,0.45313 0.98438,0.71875 0.5625,0.26563 1.21875,0.26563 z m 6.23101,-10.89063 1.07813,0 0,9.79688 q 0,0.46875 0.25,0.73437 0.26562,0.26563 0.73437,0.26563 0.17188,0 0.40625,-0.0469 0.25,-0.0469 0.45313,-0.14062 l 0.20312,0.89062 q -0.3125,0.125 -0.75,0.20313 -0.4375,0.0781 -0.76562,0.0781 -0.75,0 -1.1875,-0.42187 -0.42188,-0.42188 -0.42188,-1.1875 l 0,-10.17188 z m 6.38025,11.84375 q -0.64062,0 -1.17187,-0.1875 -0.51563,-0.20312 -0.90625,-0.54687 -0.375,-0.35938 -0.57813,-0.82813 -0.20312,-0.46875 -0.20312,-0.98437 0,-0.5625 0.25,-1.03125 0.26562,-0.48438 0.71875,-0.8125 0.46875,-0.34375 1.10937,-0.51563 0.65625,-0.1875 1.4375,-0.1875 0.625,0 1.28125,0.10938 0.65625,0.10937 1.17188,0.3125 l 0,-0.75 q 0,-1.10938 -0.64063,-1.75 -0.625,-0.64063 -1.70312,-0.64063 -0.67188,0 -1.34375,0.25 -0.65625,0.25 -1.34375,0.73438 l -0.375,-0.71875 q 0.8125,-0.54688 1.57812,-0.8125 0.76563,-0.28125 1.59375,-0.28125 1.53125,0 2.42188,0.89062 0.89062,0.875 0.89062,2.42188 l 0,3.76562 q 0,0.45313 0.39063,0.45313 l 0,0.95312 q -0.125,0.0156 -0.25,0.0156 -0.10938,0.0156 -0.1875,0.0156 -0.3125,0 -0.57813,-0.1875 -0.26562,-0.20312 -0.29687,-0.57812 l -0.0313,-0.65625 q -0.54688,0.73437 -1.4375,1.14062 -0.89063,0.40625 -1.79688,0.40625 z m 0.26563,-0.82812 q 0.73437,0 1.4375,-0.3125 0.71875,-0.3125 1.125,-0.85938 0.10937,-0.14062 0.1875,-0.29687 0.0937,-0.17188 0.0937,-0.32813 l 0,-1.35937 q -0.54688,-0.20313 -1.14063,-0.3125 -0.59375,-0.10938 -1.15625,-0.10938 -1.15625,0 -1.89062,0.46875 -0.73438,0.46875 -0.73438,1.29688 0,0.34375 0.125,0.67187 0.14063,0.3125 0.40625,0.57813 0.26563,0.25 0.64063,0.40625 0.39062,0.15625 0.90625,0.15625 z m 13.29928,0.67187 -1.07812,0 0,-4.65625 q 0,-1.48437 -0.4375,-2.15625 -0.4375,-0.67187 -1.34375,-0.67187 -0.48438,0 -0.96875,0.17187 -0.46875,0.17188 -0.89063,0.5 -0.40625,0.3125 -0.71875,0.76563 -0.3125,0.4375 -0.48437,0.9375 l 0,5.10937 -1.07813,0 0,-8.34375 0.98438,0 0,1.89063 q 0.26562,-0.4375 0.64062,-0.8125 0.375,-0.375 0.82813,-0.64063 0.46875,-0.28125 0.98437,-0.42187 0.53125,-0.15625 1.09375,-0.15625 0.70313,0 1.17188,0.26562 0.46875,0.25 0.75,0.71875 0.29687,0.45313 0.42187,1.125 0.125,0.67188 0.125,1.5 l 0,4.875 z m 1.71714,-4.1875 q 0,-0.89062 0.29687,-1.67187 0.3125,-0.78125 0.85938,-1.35938 0.5625,-0.59375 1.32812,-0.92187 0.76563,-0.34375 1.6875,-0.34375 1.1875,0 2.0625,0.54687 0.89063,0.53125 1.32813,1.4375 l -1.04688,0.34375 q -0.35937,-0.64062 -0.98437,-1 -0.625,-0.35937 -1.39063,-0.35937 -0.64062,0 -1.1875,0.25 -0.54687,0.25 -0.96875,0.70312 -0.40625,0.4375 -0.64062,1.04688 -0.21875,0.60937 -0.21875,1.32812 0,0.70313 0.23437,1.32813 0.23438,0.625 0.65625,1.07812 0.42188,0.45313 0.96875,0.71875 0.54688,0.26563 1.17188,0.26563 0.40625,0 0.79687,-0.10938 0.39063,-0.125 0.71875,-0.3125 0.34375,-0.20312 0.57813,-0.45312 0.25,-0.26563 0.34375,-0.54688 l 1.04687,0.3125 q -0.17187,0.45313 -0.51562,0.82813 -0.32813,0.375 -0.78125,0.65625 -0.45313,0.28125 -1.01563,0.42187 -0.54687,0.15625 -1.14062,0.15625 -0.90625,0 -1.67188,-0.34375 -0.76562,-0.34375 -1.32812,-0.9375 -0.5625,-0.60937 -0.875,-1.39062 -0.3125,-0.78125 -0.3125,-1.67188 z m 12.98751,4.34375 q -0.90625,0 -1.67187,-0.34375 -0.76563,-0.34375 -1.32813,-0.9375 -0.5625,-0.60937 -0.875,-1.39062 -0.3125,-0.78125 -0.3125,-1.67188 0,-0.89062 0.3125,-1.65625 0.3125,-0.78125 0.875,-1.35937 0.5625,-0.59375 1.3125,-0.9375 0.76563,-0.34375 1.67188,-0.34375 0.92187,0 1.67187,0.34375 0.76563,0.34375 1.29688,0.9375 0.54687,0.59375 0.84375,1.35937 0.3125,0.76563 0.3125,1.64063 0,0.125 -0.0156,0.25 0,0.125 -0.0156,0.17187 l -7.10938,0 q 0.0469,0.67188 0.3125,1.25 0.26563,0.5625 0.67188,0.98438 0.40625,0.40625 0.9375,0.64062 0.53125,0.23438 1.14062,0.23438 0.42188,0 0.8125,-0.10938 0.40625,-0.10937 0.73438,-0.29687 0.34375,-0.20313 0.60937,-0.48438 0.26563,-0.28125 0.40625,-0.60937 l 0.95313,0.25 q -0.20313,0.46875 -0.5625,0.84375 -0.34375,0.375 -0.8125,0.65625 -0.45313,0.28125 -1.01563,0.42187 -0.5625,0.15625 -1.15625,0.15625 z m 3.07813,-4.76562 q -0.0469,-0.67188 -0.3125,-1.21875 -0.26563,-0.5625 -0.67188,-0.95313 -0.40625,-0.40625 -0.95312,-0.625 -0.54688,-0.21875 -1.15625,-0.21875 -0.60938,0 -1.15625,0.21875 -0.53125,0.21875 -0.95313,0.625 -0.40625,0.39063 -0.65625,0.95313 -0.23437,0.5625 -0.28125,1.21875 l 6.14063,0 z m 2.5639,0.75 0,-1 4.65625,0 0,1 -4.65625,0 z m 9.08051,4.01562 q -0.64063,0 -1.17188,-0.1875 -0.51562,-0.20312 -0.90625,-0.54687 -0.375,-0.35938 -0.57812,-0.82813 -0.20313,-0.46875 -0.20313,-0.98437 0,-0.5625 0.25,-1.03125 0.26563,-0.48438 0.71875,-0.8125 0.46875,-0.34375 1.10938,-0.51563 0.65625,-0.1875 1.4375,-0.1875 0.625,0 1.28125,0.10938 0.65625,0.10937 1.17187,0.3125 l 0,-0.75 q 0,-1.10938 -0.64062,-1.75 -0.625,-0.64063 -1.70313,-0.64063 -0.67187,0 -1.34375,0.25 -0.65625,0.25 -1.34375,0.73438 l -0.375,-0.71875 q 0.8125,-0.54688 1.57813,-0.8125 0.76562,-0.28125 1.59375,-0.28125 1.53125,0 2.42187,0.89062 0.89063,0.875 0.89063,2.42188 l 0,3.76562 q 0,0.45313 0.39062,0.45313 l 0,0.95312 q -0.125,0.0156 -0.25,0.0156 -0.10937,0.0156 -0.1875,0.0156 -0.3125,0 -0.57812,-0.1875 -0.26563,-0.20312 -0.29688,-0.57812 l -0.0313,-0.65625 q -0.54687,0.73437 -1.4375,1.14062 -0.89062,0.40625 -1.79687,0.40625 z m 0.26562,-0.82812 q 0.73438,0 1.4375,-0.3125 0.71875,-0.3125 1.125,-0.85938 0.10938,-0.14062 0.1875,-0.29687 0.0937,-0.17188 0.0937,-0.32813 l 0,-1.35937 q -0.54687,-0.20313 -1.14062,-0.3125 -0.59375,-0.10938 -1.15625,-0.10938 -1.15625,0 -1.89063,0.46875 -0.73437,0.46875 -0.73437,1.29688 0,0.34375 0.125,0.67187 0.14062,0.3125 0.40625,0.57813 0.26562,0.25 0.64062,0.40625 0.39063,0.15625 0.90625,0.15625 z m 10.56491,0.82812 q -1.04687,0 -1.875,-0.53125 -0.8125,-0.53125 -1.3125,-1.35937 l 0,5.14062 -1.07812,0 0,-11.75 0.96875,0 0,1.625 q 0.51562,-0.78125 1.32812,-1.26562 0.8125,-0.5 1.78125,-0.5 0.85938,0 1.57813,0.35937 0.73437,0.35938 1.26562,0.96875 0.53125,0.59375 0.82813,1.39063 0.29687,0.78125 0.29687,1.60937 0,0.875 -0.28125,1.65625 -0.26562,0.78125 -0.78125,1.375 -0.5,0.59375 -1.20312,0.9375 -0.6875,0.34375 -1.51563,0.34375 z m -0.29687,-0.95312 q 0.67187,0 1.20312,-0.28125 0.54688,-0.29688 0.9375,-0.76563 0.40625,-0.46875 0.60938,-1.0625 0.20312,-0.60937 0.20312,-1.25 0,-0.67187 -0.25,-1.28125 -0.23437,-0.60937 -0.65625,-1.0625 -0.40625,-0.46875 -0.98437,-0.73437 -0.5625,-0.28125 -1.21875,-0.28125 -0.40625,0 -0.85938,0.17187 -0.4375,0.15625 -0.84375,0.4375 -0.40625,0.28125 -0.6875,0.65625 -0.28125,0.375 -0.34375,0.79688 l 0,2.5625 q 0.20313,0.4375 0.5,0.82812 0.29688,0.375 0.67188,0.65625 0.375,0.28125 0.8125,0.45313 0.4375,0.15625 0.90625,0.15625 z m 5.87128,0.79687 0,-8.34375 1.07812,0 0,8.34375 -1.07812,0 z m 0,-10.07812 0,-1.60938 1.07812,0 0,1.60938 -1.07812,0 z" />
  <path
     style="fill:#cfe2f3;fill-rule:nonzero"
     inkscape:connector-curvature="0"
     id="path3877"
     d="m 0.9933113,211.84664 103.2126187,0 0,40 -103.2126187,0 z" />
  <path
     style="stroke:#000000;stroke-width:2;stroke-linecap:butt;stroke-linejoin:round"
     inkscape:connector-curvature="0"
     id="path3879"
     d="m 0.9933113,211.84664 103.2126187,0 0,40 -103.2126187,0 z" />
  <path
     style="fill:#000000;fill-rule:nonzero"
     inkscape:connector-curvature="0"
     id="path3881"
     d="m 25.836551,237.50289 -3.07813,-4.26563 -1.79687,1.65625 0,2.60938 -1.07813,0 0,-11.6875 1.07813,0 0,7.9375 4.6875,-4.5625 1.23437,0 -3.40625,3.40625 3.53125,4.90625 -1.17187,0 z m 6.11954,0.15625 q -0.90625,0 -1.67188,-0.34375 -0.76562,-0.34375 -1.32812,-0.9375 -0.5625,-0.60938 -0.875,-1.39063 -0.3125,-0.78125 -0.3125,-1.67187 0,-0.89063 0.3125,-1.65625 0.3125,-0.78125 0.875,-1.35938 0.5625,-0.59375 1.3125,-0.9375 0.76562,-0.34375 1.67187,-0.34375 0.92188,0 1.67188,0.34375 0.76562,0.34375 1.29687,0.9375 0.54688,0.59375 0.84375,1.35938 0.3125,0.76562 0.3125,1.64062 0,0.125 -0.0156,0.25 0,0.125 -0.0156,0.17188 l -7.10937,0 q 0.0469,0.67187 0.3125,1.25 0.26562,0.5625 0.67187,0.98437 0.40625,0.40625 0.9375,0.64063 0.53125,0.23437 1.14063,0.23437 0.42187,0 0.8125,-0.10937 0.40625,-0.10938 0.73437,-0.29688 0.34375,-0.20312 0.60938,-0.48437 0.26562,-0.28125 0.40625,-0.60938 l 0.95312,0.25 q -0.20312,0.46875 -0.5625,0.84375 -0.34375,0.375 -0.8125,0.65625 -0.45312,0.28125 -1.01562,0.42188 -0.5625,0.15625 -1.15625,0.15625 z m 3.07812,-4.76563 q -0.0469,-0.67187 -0.3125,-1.21875 -0.26562,-0.5625 -0.67187,-0.95312 -0.40625,-0.40625 -0.95313,-0.625 -0.54687,-0.21875 -1.15625,-0.21875 -0.60937,0 -1.15625,0.21875 -0.53125,0.21875 -0.95312,0.625 -0.40625,0.39062 -0.65625,0.95312 -0.23438,0.5625 -0.28125,1.21875 l 6.14062,0 z m 3.142,7.1875 q 0.0937,0.0156 0.17188,0.0156 0.0781,0.0156 0.15625,0.0156 0.15625,0 0.34375,-0.0313 0.1875,-0.0313 0.26562,-0.0625 0.0781,-0.0313 0.15625,-0.14062 0.0937,-0.10938 0.23438,-0.375 0.14062,-0.25 0.34375,-0.73438 0.20312,-0.46875 0.53125,-1.26562 l -3.64063,-8.34375 1.14063,0 3.09375,7.32812 2.84375,-7.32812 1.03125,0 -4.32813,10.76562 q -0.23437,0.59375 -0.65625,0.875 -0.40625,0.28125 -1.14062,0.28125 -0.29688,0 -0.54688,-0.0469 l 0,-0.95313 z m 11.00015,-2.42187 q -0.98437,0 -1.90625,-0.3125 -0.92187,-0.32813 -1.59375,-0.9375 l 0.48438,-0.73438 q 0.70312,0.57813 1.4375,0.875 0.73437,0.28125 1.5625,0.28125 1,0 1.59375,-0.40625 0.60937,-0.40625 0.60937,-1.15625 0,-0.35937 -0.15625,-0.59375 -0.15625,-0.23437 -0.46875,-0.40625 -0.3125,-0.17187 -0.79687,-0.3125 -0.46875,-0.14062 -1.09375,-0.28125 -0.71875,-0.17187 -1.25,-0.34375 -0.51563,-0.1875 -0.85938,-0.40625 -0.34375,-0.21875 -0.51562,-0.54687 -0.17188,-0.32813 -0.17188,-0.82813 0,-0.625 0.25,-1.09375 0.25,-0.48437 0.67188,-0.79687 0.42187,-0.3125 0.98437,-0.46875 0.57813,-0.17188 1.21875,-0.17188 0.95313,0 1.73438,0.3125 0.79687,0.3125 1.26562,0.82813 l -0.51562,0.64062 q -0.46875,-0.48437 -1.14063,-0.71875 -0.65625,-0.23437 -1.375,-0.23437 -0.4375,0 -0.8125,0.0937 -0.35937,0.0781 -0.64062,0.26562 -0.28125,0.1875 -0.4375,0.48438 -0.15625,0.29687 -0.15625,0.70312 0,0.32813 0.10937,0.54688 0.10938,0.20312 0.35938,0.35937 0.26562,0.14063 0.65625,0.26563 0.39062,0.125 0.95312,0.25 0.79688,0.1875 1.40625,0.39062 0.60938,0.1875 1.01563,0.45313 0.40625,0.25 0.60937,0.625 0.21875,0.35937 0.21875,0.875 0,1.15625 -0.89062,1.82812 -0.875,0.67188 -2.35938,0.67188 z m 9.0264,-0.5625 q -0.0937,0.0469 -0.28125,0.14062 -0.1875,0.0781 -0.4375,0.15625 -0.23437,0.0781 -0.54687,0.14063 -0.29688,0.0625 -0.625,0.0625 -0.35938,0 -0.6875,-0.0937 -0.3125,-0.0937 -0.54688,-0.29688 -0.23437,-0.20312 -0.39062,-0.5 -0.14063,-0.3125 -0.14063,-0.70312 l 0,-5.96875 -1.14062,0 0,-0.875 1.14062,0 0,-2.8125 1.09375,0 0,2.8125 1.92188,0 0,0.875 -1.92188,0 0,5.65625 q 0.0313,0.46875 0.3125,0.6875 0.29688,0.21875 0.6875,0.21875 0.46875,0 0.8125,-0.15625 0.35938,-0.15625 0.45313,-0.21875 l 0.29687,0.875 z m 4.87451,0.5625 q -0.90625,0 -1.67187,-0.34375 -0.75,-0.34375 -1.3125,-0.9375 -0.54688,-0.59375 -0.85938,-1.375 -0.29687,-0.78125 -0.29687,-1.64063 0,-0.89062 0.3125,-1.67187 0.3125,-0.78125 0.85937,-1.375 0.5625,-0.59375 1.3125,-0.9375 0.76563,-0.35938 1.65625,-0.35938 0.89063,0 1.65625,0.35938 0.76563,0.34375 1.3125,0.9375 0.54688,0.59375 0.85938,1.375 0.3125,0.78125 0.3125,1.67187 0,0.85938 -0.3125,1.64063 -0.3125,0.78125 -0.85938,1.375 -0.54687,0.59375 -1.3125,0.9375 -0.76562,0.34375 -1.65625,0.34375 z m -3.01562,-4.28125 q 0,0.70312 0.21875,1.3125 0.23437,0.59375 0.64062,1.04687 0.42188,0.45313 0.96875,0.71875 0.54688,0.25 1.17188,0.25 0.625,0 1.17187,-0.26562 0.5625,-0.26563 0.96875,-0.71875 0.42188,-0.45313 0.65625,-1.0625 0.25,-0.60938 0.25,-1.3125 0,-0.6875 -0.25,-1.29688 -0.23437,-0.625 -0.65625,-1.07812 -0.40625,-0.45313 -0.95312,-0.71875 -0.54688,-0.26563 -1.17188,-0.26563 -0.625,0 -1.17187,0.26563 -0.54688,0.26562 -0.96875,0.73437 -0.40625,0.45313 -0.64063,1.07813 -0.23437,0.60937 -0.23437,1.3125 z m 15.94189,4.125 -1.07812,0 0,-4.65625 q 0,-1.48438 -0.4375,-2.15625 -0.4375,-0.67188 -1.34375,-0.67188 -0.48438,0 -0.96875,0.17188 -0.46875,0.17187 -0.89063,0.5 -0.40625,0.3125 -0.71875,0.76562 -0.3125,0.4375 -0.48437,0.9375 l 0,5.10938 -1.07813,0 0,-8.34375 0.98438,0 0,1.89062 q 0.26562,-0.4375 0.64062,-0.8125 0.375,-0.375 0.82813,-0.64062 0.46875,-0.28125 0.98437,-0.42188 0.53125,-0.15625 1.09375,-0.15625 0.70313,0 1.17188,0.26563 0.46875,0.25 0.75,0.71875 0.29687,0.45312 0.42187,1.125 0.125,0.67187 0.125,1.5 l 0,4.875 z m 5.90464,0.15625 q -0.90625,0 -1.67188,-0.34375 -0.76562,-0.34375 -1.32812,-0.9375 -0.5625,-0.60938 -0.875,-1.39063 -0.3125,-0.78125 -0.3125,-1.67187 0,-0.89063 0.3125,-1.65625 0.3125,-0.78125 0.875,-1.35938 0.5625,-0.59375 1.3125,-0.9375 0.76562,-0.34375 1.67187,-0.34375 0.92188,0 1.67188,0.34375 0.76562,0.34375 1.29687,0.9375 0.54688,0.59375 0.84375,1.35938 0.3125,0.76562 0.3125,1.64062 0,0.125 -0.0156,0.25 0,0.125 -0.0156,0.17188 l -7.10937,0 q 0.0469,0.67187 0.3125,1.25 0.26562,0.5625 0.67187,0.98437 0.40625,0.40625 0.9375,0.64063 0.53125,0.23437 1.14063,0.23437 0.42187,0 0.8125,-0.10937 0.40625,-0.10938 0.73437,-0.29688 0.34375,-0.20312 0.60938,-0.48437 0.26562,-0.28125 0.40625,-0.60938 l 0.95312,0.25 q -0.20312,0.46875 -0.5625,0.84375 -0.34375,0.375 -0.8125,0.65625 -0.45312,0.28125 -1.01562,0.42188 -0.5625,0.15625 -1.15625,0.15625 z m 3.07812,-4.76563 q -0.0469,-0.67187 -0.3125,-1.21875 -0.26562,-0.5625 -0.67187,-0.95312 -0.40625,-0.40625 -0.95313,-0.625 -0.54687,-0.21875 -1.15625,-0.21875 -0.60937,0 -1.15625,0.21875 -0.53125,0.21875 -0.95312,0.625 -0.40625,0.39062 -0.65625,0.95312 -0.23438,0.5625 -0.28125,1.21875 l 6.14062,0 z" />
  <path
     style="fill:#cfe2f3;fill-rule:nonzero"
     inkscape:connector-curvature="0"
     id="path3883"
     d="m 0.9933113,171.84664 103.2126187,0 0,40 -103.2126187,0 z" />
  <path
     style="stroke:#000000;stroke-width:2;stroke-linecap:butt;stroke-linejoin:round"
     inkscape:connector-curvature="0"
     id="path3885"
     d="m 0.9933113,171.84664 103.2126187,0 0,40 -103.2126187,0 z" />
  <path
     style="fill:#000000;fill-rule:nonzero"
     inkscape:connector-curvature="0"
     id="path3887"
     d="m 33.579431,197.50289 -1.07812,0 0,-4.65625 q 0,-1.42188 -0.5,-2.125 -0.48438,-0.70313 -1.42188,-0.70313 -0.46875,0 -0.92187,0.1875 -0.45313,0.17188 -0.85938,0.5 -0.40625,0.3125 -0.70312,0.75 -0.28125,0.4375 -0.4375,0.9375 l 0,5.10938 -1.07813,0 0,-11.6875 1.07813,0 0,5.23437 q 0.51562,-0.9375 1.39062,-1.48437 0.89063,-0.54688 1.89063,-0.54688 0.71875,0 1.21875,0.26563 0.51562,0.26562 0.82812,0.73437 0.3125,0.46875 0.45313,1.14063 0.14062,0.65625 0.14062,1.46875 l 0,4.875 z m 5.85779,0.15625 q -0.90625,0 -1.67188,-0.34375 -0.75,-0.34375 -1.3125,-0.9375 -0.54687,-0.59375 -0.85937,-1.375 -0.29688,-0.78125 -0.29688,-1.64063 0,-0.89062 0.3125,-1.67187 0.3125,-0.78125 0.85938,-1.375 0.5625,-0.59375 1.3125,-0.9375 0.76562,-0.35938 1.65625,-0.35938 0.89062,0 1.65625,0.35938 0.76562,0.34375 1.3125,0.9375 0.54687,0.59375 0.85937,1.375 0.3125,0.78125 0.3125,1.67187 0,0.85938 -0.3125,1.64063 -0.3125,0.78125 -0.85937,1.375 -0.54688,0.59375 -1.3125,0.9375 -0.76563,0.34375 -1.65625,0.34375 z m -3.01563,-4.28125 q 0,0.70312 0.21875,1.3125 0.23438,0.59375 0.64063,1.04687 0.42187,0.45313 0.96875,0.71875 0.54687,0.25 1.17187,0.25 0.625,0 1.17188,-0.26562 0.5625,-0.26563 0.96875,-0.71875 0.42187,-0.45313 0.65625,-1.0625 0.25,-0.60938 0.25,-1.3125 0,-0.6875 -0.25,-1.29688 -0.23438,-0.625 -0.65625,-1.07812 -0.40625,-0.45313 -0.95313,-0.71875 -0.54687,-0.26563 -1.17187,-0.26563 -0.625,0 -1.17188,0.26563 -0.54687,0.26562 -0.96875,0.73437 -0.40625,0.45313 -0.64062,1.07813 -0.23438,0.60937 -0.23438,1.3125 z m 13.09815,-3.25 q -1.10938,0.0313 -1.92188,0.60937 -0.8125,0.57813 -1.15625,1.57813 l 0,5.1875 -1.07812,0 0,-8.34375 1.01562,0 0,2 q 0.4375,-0.875 1.14063,-1.45313 0.70312,-0.59375 1.51562,-0.59375 0.14063,0 0.26563,0 0.14062,0 0.21875,0.0156 l 0,1 z m 1.45975,7.375 0,-8.34375 1.07812,0 0,8.34375 -1.07812,0 z m 0,-10.07813 0,-1.60937 1.07812,0 0,1.60937 -1.07812,0 z m 2.70526,9.34375 5.625,-6.78125 -5.5,0 0,-0.82812 6.6875,0 0,0.75 -5.60938,6.78125 5.60938,0 0,0.8125 -6.8125,0 0,-0.73438 z m 12.08853,0.89063 q -0.90625,0 -1.67188,-0.34375 -0.75,-0.34375 -1.3125,-0.9375 -0.54687,-0.59375 -0.85937,-1.375 -0.29688,-0.78125 -0.29688,-1.64063 0,-0.89062 0.3125,-1.67187 0.3125,-0.78125 0.85938,-1.375 0.5625,-0.59375 1.3125,-0.9375 0.76562,-0.35938 1.65625,-0.35938 0.89062,0 1.65625,0.35938 0.76562,0.34375 1.3125,0.9375 0.54687,0.59375 0.85937,1.375 0.3125,0.78125 0.3125,1.67187 0,0.85938 -0.3125,1.64063 -0.3125,0.78125 -0.85937,1.375 -0.54688,0.59375 -1.3125,0.9375 -0.76563,0.34375 -1.65625,0.34375 z m -3.01563,-4.28125 q 0,0.70312 0.21875,1.3125 0.23438,0.59375 0.64063,1.04687 0.42187,0.45313 0.96875,0.71875 0.54687,0.25 1.17187,0.25 0.625,0 1.17188,-0.26562 0.5625,-0.26563 0.96875,-0.71875 0.42187,-0.45313 0.65625,-1.0625 0.25,-0.60938 0.25,-1.3125 0,-0.6875 -0.25,-1.29688 -0.23438,-0.625 -0.65625,-1.07812 -0.40625,-0.45313 -0.95313,-0.71875 -0.54687,-0.26563 -1.17187,-0.26563 -0.625,0 -1.17188,0.26563 -0.54687,0.26562 -0.96875,0.73437 -0.40625,0.45313 -0.64062,1.07813 -0.23438,0.60937 -0.23438,1.3125 z m 15.9419,4.125 -1.07813,0 0,-4.65625 q 0,-1.48438 -0.4375,-2.15625 -0.4375,-0.67188 -1.34375,-0.67188 -0.48437,0 -0.96875,0.17188 -0.46875,0.17187 -0.89062,0.5 -0.40625,0.3125 -0.71875,0.76562 -0.3125,0.4375 -0.48438,0.9375 l 0,5.10938 -1.07812,0 0,-8.34375 0.98437,0 0,1.89062 q 0.26563,-0.4375 0.64063,-0.8125 0.375,-0.375 0.82812,-0.64062 0.46875,-0.28125 0.98438,-0.42188 0.53125,-0.15625 1.09375,-0.15625 0.70312,0 1.17187,0.26563 0.46875,0.25 0.75,0.71875 0.29688,0.45312 0.42188,1.125 0.125,0.67187 0.125,1.5 l 0,4.875 z" />
  <path
     style="fill:#cfe2f3;fill-rule:nonzero"
     inkscape:connector-curvature="0"
     id="path3889"
     d="m 173.88311,331.84664 103.21258,0 0,40 -103.21258,0 z" />
  <path
     style="stroke:#000000;stroke-width:2;stroke-linecap:butt;stroke-linejoin:round"
     inkscape:connector-curvature="0"
     id="path3891"
     d="m 173.88311,331.84664 103.21258,0 0,40 -103.21258,0 z" />
  <path
     style="fill:#000000;fill-rule:nonzero"
     inkscape:connector-curvature="0"
     id="path3893"
     d="m 191.08845,351.73727 q 0,-1.01563 0.35938,-2.03125 0.35937,-1.01563 1.04687,-1.8125 0.6875,-0.8125 1.6875,-1.3125 1.01563,-0.5 2.29688,-0.5 1.51562,0 2.59375,0.6875 1.07812,0.6875 1.59375,1.79687 l -0.89063,0.53125 q -0.26562,-0.54687 -0.65625,-0.9375 -0.375,-0.39062 -0.82812,-0.625 -0.45313,-0.23437 -0.9375,-0.34375 -0.46875,-0.10937 -0.9375,-0.10937 -1.01563,0 -1.8125,0.42187 -0.78125,0.42188 -1.3125,1.09375 -0.53125,0.67188 -0.8125,1.51563 -0.26563,0.82812 -0.26563,1.6875 0,0.95312 0.32813,1.8125 0.32812,0.85937 0.89062,1.53125 0.5625,0.65625 1.34375,1.0625 0.78125,0.39062 1.6875,0.39062 0.48438,0 0.98438,-0.125 0.5,-0.125 0.96875,-0.39062 0.48437,-0.26563 0.875,-0.65625 0.40625,-0.39063 0.67187,-0.95313 l 0.9375,0.48438 q -0.28125,0.64062 -0.78125,1.14062 -0.48437,0.48438 -1.09375,0.82813 -0.60937,0.32812 -1.29687,0.5 -0.67188,0.17187 -1.32813,0.17187 -1.17187,0 -2.15625,-0.5 -0.96875,-0.51562 -1.67187,-1.34375 -0.70313,-0.82812 -1.09375,-1.875 -0.39063,-1.04687 -0.39063,-2.14062 z m 15.08655,5.92187 q -0.90625,0 -1.67188,-0.34375 -0.75,-0.34375 -1.3125,-0.9375 -0.54687,-0.59375 -0.85937,-1.375 -0.29688,-0.78125 -0.29688,-1.64062 0,-0.89063 0.3125,-1.67188 0.3125,-0.78125 0.85938,-1.375 0.5625,-0.59375 1.3125,-0.9375 0.76562,-0.35937 1.65625,-0.35937 0.89062,0 1.65625,0.35937 0.76562,0.34375 1.3125,0.9375 0.54687,0.59375 0.85937,1.375 0.3125,0.78125 0.3125,1.67188 0,0.85937 -0.3125,1.64062 -0.3125,0.78125 -0.85937,1.375 -0.54688,0.59375 -1.3125,0.9375 -0.76563,0.34375 -1.65625,0.34375 z m -3.01563,-4.28125 q 0,0.70313 0.21875,1.3125 0.23438,0.59375 0.64063,1.04688 0.42187,0.45312 0.96875,0.71875 0.54687,0.25 1.17187,0.25 0.625,0 1.17188,-0.26563 0.5625,-0.26562 0.96875,-0.71875 0.42187,-0.45312 0.65625,-1.0625 0.25,-0.60937 0.25,-1.3125 0,-0.6875 -0.25,-1.29687 -0.23438,-0.625 -0.65625,-1.07813 -0.40625,-0.45312 -0.95313,-0.71875 -0.54687,-0.26562 -1.17187,-0.26562 -0.625,0 -1.17188,0.26562 -0.54687,0.26563 -0.96875,0.73438 -0.40625,0.45312 -0.64062,1.07812 -0.23438,0.60938 -0.23438,1.3125 z m 13.09815,-3.25 q -1.10938,0.0313 -1.92188,0.60938 -0.8125,0.57812 -1.15625,1.57812 l 0,5.1875 -1.07812,0 0,-8.34375 1.01562,0 0,2 q 0.4375,-0.875 1.14063,-1.45312 0.70312,-0.59375 1.51562,-0.59375 0.14063,0 0.26563,0 0.14062,0 0.21875,0.0156 l 0,1 z m 5.05347,7.53125 q -0.90625,0 -1.67188,-0.34375 -0.75,-0.34375 -1.3125,-0.9375 -0.54687,-0.59375 -0.85937,-1.375 -0.29688,-0.78125 -0.29688,-1.64062 0,-0.89063 0.3125,-1.67188 0.3125,-0.78125 0.85938,-1.375 0.5625,-0.59375 1.3125,-0.9375 0.76562,-0.35937 1.65625,-0.35937 0.89062,0 1.65625,0.35937 0.76562,0.34375 1.3125,0.9375 0.54687,0.59375 0.85937,1.375 0.3125,0.78125 0.3125,1.67188 0,0.85937 -0.3125,1.64062 -0.3125,0.78125 -0.85937,1.375 -0.54688,0.59375 -1.3125,0.9375 -0.76563,0.34375 -1.65625,0.34375 z m -3.01563,-4.28125 q 0,0.70313 0.21875,1.3125 0.23438,0.59375 0.64063,1.04688 0.42187,0.45312 0.96875,0.71875 0.54687,0.25 1.17187,0.25 0.625,0 1.17188,-0.26563 0.5625,-0.26562 0.96875,-0.71875 0.42187,-0.45312 0.65625,-1.0625 0.25,-0.60937 0.25,-1.3125 0,-0.6875 -0.25,-1.29687 -0.23438,-0.625 -0.65625,-1.07813 -0.40625,-0.45312 -0.95313,-0.71875 -0.54687,-0.26562 -1.17187,-0.26562 -0.625,0 -1.17188,0.26562 -0.54687,0.26563 -0.96875,0.73438 -0.40625,0.45312 -0.64062,1.07812 -0.23438,0.60938 -0.23438,1.3125 z m 11.73877,4.28125 q -0.98437,0 -1.90625,-0.3125 -0.92187,-0.32812 -1.59375,-0.9375 l 0.48438,-0.73437 q 0.70312,0.57812 1.4375,0.875 0.73437,0.28125 1.5625,0.28125 1,0 1.59375,-0.40625 0.60937,-0.40625 0.60937,-1.15625 0,-0.35938 -0.15625,-0.59375 -0.15625,-0.23438 -0.46875,-0.40625 -0.3125,-0.17188 -0.79687,-0.3125 -0.46875,-0.14063 -1.09375,-0.28125 -0.71875,-0.17188 -1.25,-0.34375 -0.51563,-0.1875 -0.85938,-0.40625 -0.34375,-0.21875 -0.51562,-0.54688 -0.17188,-0.32812 -0.17188,-0.82812 0,-0.625 0.25,-1.09375 0.25,-0.48438 0.67188,-0.79688 0.42187,-0.3125 0.98437,-0.46875 0.57813,-0.17187 1.21875,-0.17187 0.95313,0 1.73438,0.3125 0.79687,0.3125 1.26562,0.82812 l -0.51562,0.64063 q -0.46875,-0.48438 -1.14063,-0.71875 -0.65625,-0.23438 -1.375,-0.23438 -0.4375,0 -0.8125,0.0937 -0.35937,0.0781 -0.64062,0.26563 -0.28125,0.1875 -0.4375,0.48437 -0.15625,0.29688 -0.15625,0.70313 0,0.32812 0.10937,0.54687 0.10938,0.20313 0.35938,0.35938 0.26562,0.14062 0.65625,0.26562 0.39062,0.125 0.95312,0.25 0.79688,0.1875 1.40625,0.39063 0.60938,0.1875 1.01563,0.45312 0.40625,0.25 0.60937,0.625 0.21875,0.35938 0.21875,0.875 0,1.15625 -0.89062,1.82813 -0.875,0.67187 -2.35938,0.67187 z m 5.46393,2.42188 q 0.0937,0.0156 0.17187,0.0156 0.0781,0.0156 0.15625,0.0156 0.15625,0 0.34375,-0.0313 0.1875,-0.0313 0.26563,-0.0625 0.0781,-0.0313 0.15625,-0.14063 0.0937,-0.10937 0.23437,-0.375 0.14063,-0.25 0.34375,-0.73437 0.20313,-0.46875 0.53125,-1.26563 l -3.64062,-8.34375 1.14062,0 3.09375,7.32813 2.84375,-7.32813 1.03125,0 -4.32812,10.76563 q -0.23438,0.59375 -0.65625,0.875 -0.40625,0.28125 -1.14063,0.28125 -0.29687,0 -0.54687,-0.0469 l 0,-0.95312 z m 15.20325,-2.57813 -1.07813,0 0,-4.65625 q 0,-1.48437 -0.4375,-2.15625 -0.4375,-0.67187 -1.34375,-0.67187 -0.48437,0 -0.96875,0.17187 -0.46875,0.17188 -0.89062,0.5 -0.40625,0.3125 -0.71875,0.76563 -0.3125,0.4375 -0.48438,0.9375 l 0,5.10937 -1.07812,0 0,-8.34375 0.98437,0 0,1.89063 q 0.26563,-0.4375 0.64063,-0.8125 0.375,-0.375 0.82812,-0.64063 0.46875,-0.28125 0.98438,-0.42187 0.53125,-0.15625 1.09375,-0.15625 0.70312,0 1.17187,0.26562 0.46875,0.25 0.75,0.71875 0.29688,0.45313 0.42188,1.125 0.125,0.67188 0.125,1.5 l 0,4.875 z m 1.71716,-4.1875 q 0,-0.89062 0.29687,-1.67187 0.3125,-0.78125 0.85938,-1.35938 0.5625,-0.59375 1.32812,-0.92187 0.76563,-0.34375 1.6875,-0.34375 1.1875,0 2.0625,0.54687 0.89063,0.53125 1.32813,1.4375 l -1.04688,0.34375 q -0.35937,-0.64062 -0.98437,-1 -0.625,-0.35937 -1.39063,-0.35937 -0.64062,0 -1.1875,0.25 -0.54687,0.25 -0.96875,0.70312 -0.40625,0.4375 -0.64062,1.04688 -0.21875,0.60937 -0.21875,1.32812 0,0.70313 0.23437,1.32813 0.23438,0.625 0.65625,1.07812 0.42188,0.45313 0.96875,0.71875 0.54688,0.26563 1.17188,0.26563 0.40625,0 0.79687,-0.10938 0.39063,-0.125 0.71875,-0.3125 0.34375,-0.20312 0.57813,-0.45312 0.25,-0.26563 0.34375,-0.54688 l 1.04687,0.3125 q -0.17187,0.45313 -0.51562,0.82813 -0.32813,0.375 -0.78125,0.65625 -0.45313,0.28125 -1.01563,0.42187 -0.54687,0.15625 -1.14062,0.15625 -0.90625,0 -1.67188,-0.34375 -0.76562,-0.34375 -1.32812,-0.9375 -0.5625,-0.60937 -0.875,-1.39062 -0.3125,-0.78125 -0.3125,-1.67188 z" />
  <path
     style="fill:#cfe2f3;fill-rule:nonzero"
     inkscape:connector-curvature="0"
     id="path3895"
     d="m 173.88311,291.84664 103.21258,0 0,40 -103.21258,0 z" />
  <path
     style="stroke:#000000;stroke-width:2;stroke-linecap:butt;stroke-linejoin:round"
     inkscape:connector-curvature="0"
     id="path3897"
     d="m 173.88311,291.84664 103.21258,0 0,40 -103.21258,0 z" />
  <path
     style="fill:#000000;fill-rule:nonzero"
     inkscape:connector-curvature="0"
     id="path3899"
     d="m 185.04681,317.50289 0,-11.35938 4.70312,0 q 0.73438,0 1.34375,0.3125 0.625,0.3125 1.07813,0.8125 0.45312,0.5 0.6875,1.14063 0.25,0.64062 0.25,1.29687 0,0.70313 -0.23438,1.35938 -0.21875,0.64062 -0.65625,1.14062 -0.4375,0.5 -1.04687,0.8125 -0.59375,0.29688 -1.32813,0.29688 l -3.6875,0 0,4.1875 -1.10937,0 z m 1.10937,-5.1875 3.625,0 q 0.5,0 0.90625,-0.20313 0.40625,-0.21875 0.6875,-0.57812 0.29688,-0.375 0.45313,-0.84375 0.17187,-0.46875 0.17187,-0.98438 0,-0.51562 -0.1875,-0.98437 -0.1875,-0.48438 -0.5,-0.82813 -0.3125,-0.35937 -0.73437,-0.5625 -0.42188,-0.20312 -0.89063,-0.20312 l -3.53125,0 0,5.1875 z m 10.76416,5.34375 q -0.64062,0 -1.17187,-0.1875 -0.51563,-0.20313 -0.90625,-0.54688 -0.375,-0.35937 -0.57813,-0.82812 -0.20312,-0.46875 -0.20312,-0.98438 0,-0.5625 0.25,-1.03125 0.26562,-0.48437 0.71875,-0.8125 0.46875,-0.34375 1.10937,-0.51562 0.65625,-0.1875 1.4375,-0.1875 0.625,0 1.28125,0.10937 0.65625,0.10938 1.17188,0.3125 l 0,-0.75 q 0,-1.10937 -0.64063,-1.75 -0.625,-0.64062 -1.70312,-0.64062 -0.67188,0 -1.34375,0.25 -0.65625,0.25 -1.34375,0.73437 l -0.375,-0.71875 q 0.8125,-0.54687 1.57812,-0.8125 0.76563,-0.28125 1.59375,-0.28125 1.53125,0 2.42188,0.89063 0.89062,0.875 0.89062,2.42187 l 0,3.76563 q 0,0.45312 0.39063,0.45312 l 0,0.95313 q -0.125,0.0156 -0.25,0.0156 -0.10938,0.0156 -0.1875,0.0156 -0.3125,0 -0.57813,-0.1875 -0.26562,-0.20313 -0.29687,-0.57813 l -0.0313,-0.65625 q -0.54688,0.73438 -1.4375,1.14063 -0.89063,0.40625 -1.79688,0.40625 z m 0.26563,-0.82813 q 0.73437,0 1.4375,-0.3125 0.71875,-0.3125 1.125,-0.85937 0.10937,-0.14063 0.1875,-0.29688 0.0937,-0.17187 0.0937,-0.32812 l 0,-1.35938 q -0.54688,-0.20312 -1.14063,-0.3125 -0.59375,-0.10937 -1.15625,-0.10937 -1.15625,0 -1.89062,0.46875 -0.73438,0.46875 -0.73438,1.29687 0,0.34375 0.125,0.67188 0.14063,0.3125 0.40625,0.57812 0.26563,0.25 0.64063,0.40625 0.39062,0.15625 0.90625,0.15625 z m 5.75238,-3.51562 q 0,-0.89063 0.29688,-1.67188 0.3125,-0.78125 0.85937,-1.35937 0.5625,-0.59375 1.32813,-0.92188 0.76562,-0.34375 1.6875,-0.34375 1.1875,0 2.0625,0.54688 0.89062,0.53125 1.32812,1.4375 l -1.04687,0.34375 q -0.35938,-0.64063 -0.98438,-1 -0.625,-0.35938 -1.39062,-0.35938 -0.64063,0 -1.1875,0.25 -0.54688,0.25 -0.96875,0.70313 -0.40625,0.4375 -0.64063,1.04687 -0.21875,0.60938 -0.21875,1.32813 0,0.70312 0.23438,1.32812 0.23437,0.625 0.65625,1.07813 0.42187,0.45312 0.96875,0.71875 0.54687,0.26562 1.17187,0.26562 0.40625,0 0.79688,-0.10937 0.39062,-0.125 0.71875,-0.3125 0.34375,-0.20313 0.57812,-0.45313 0.25,-0.26562 0.34375,-0.54687 l 1.04688,0.3125 q -0.17188,0.45312 -0.51563,0.82812 -0.32812,0.375 -0.78125,0.65625 -0.45312,0.28125 -1.01562,0.42188 -0.54688,0.15625 -1.14063,0.15625 -0.90625,0 -1.67187,-0.34375 -0.76563,-0.34375 -1.32813,-0.9375 -0.5625,-0.60938 -0.875,-1.39063 -0.3125,-0.78125 -0.3125,-1.67187 z m 12.98749,4.34375 q -0.90625,0 -1.67188,-0.34375 -0.76562,-0.34375 -1.32812,-0.9375 -0.5625,-0.60938 -0.875,-1.39063 -0.3125,-0.78125 -0.3125,-1.67187 0,-0.89063 0.3125,-1.65625 0.3125,-0.78125 0.875,-1.35938 0.5625,-0.59375 1.3125,-0.9375 0.76562,-0.34375 1.67187,-0.34375 0.92188,0 1.67188,0.34375 0.76562,0.34375 1.29687,0.9375 0.54688,0.59375 0.84375,1.35938 0.3125,0.76562 0.3125,1.64062 0,0.125 -0.0156,0.25 0,0.125 -0.0156,0.17188 l -7.10937,0 q 0.0469,0.67187 0.3125,1.25 0.26562,0.5625 0.67187,0.98437 0.40625,0.40625 0.9375,0.64063 0.53125,0.23437 1.14063,0.23437 0.42187,0 0.8125,-0.10937 0.40625,-0.10938 0.73437,-0.29688 0.34375,-0.20312 0.60938,-0.48437 0.26562,-0.28125 0.40625,-0.60938 l 0.95312,0.25 q -0.20312,0.46875 -0.5625,0.84375 -0.34375,0.375 -0.8125,0.65625 -0.45312,0.28125 -1.01562,0.42188 -0.5625,0.15625 -1.15625,0.15625 z m 3.07812,-4.76563 q -0.0469,-0.67187 -0.3125,-1.21875 -0.26562,-0.5625 -0.67187,-0.95312 -0.40625,-0.40625 -0.95313,-0.625 -0.54687,-0.21875 -1.15625,-0.21875 -0.60937,0 -1.15625,0.21875 -0.53125,0.21875 -0.95312,0.625 -0.40625,0.39062 -0.65625,0.95312 -0.23438,0.5625 -0.28125,1.21875 l 6.14062,0 z m 15.06391,4.60938 -1.07813,0 0,-4.65625 q 0,-1.45313 -0.46875,-2.14063 -0.45312,-0.6875 -1.375,-0.6875 -0.48437,0 -0.90625,0.17188 -0.42187,0.17187 -0.78125,0.5 -0.35937,0.3125 -0.64062,0.76562 -0.26563,0.4375 -0.40625,0.95313 l 0,5.09375 -1.09375,0 0,-4.65625 q 0,-1.48438 -0.45313,-2.15625 -0.4375,-0.67188 -1.375,-0.67188 -0.9375,0 -1.67187,0.65625 -0.73438,0.65625 -1.0625,1.71875 l 0,5.10938 -1.07813,0 0,-8.34375 0.98438,0 0,1.89062 q 0.51562,-0.95312 1.34375,-1.48437 0.84375,-0.54688 1.84375,-0.54688 1.0625,0 1.70312,0.59375 0.64063,0.59375 0.76563,1.54688 1.15625,-2.14063 3.23437,-2.14063 0.6875,0 1.17188,0.26563 0.48437,0.25 0.78125,0.71875 0.29687,0.46875 0.42187,1.14062 0.14063,0.65625 0.14063,1.48438 l 0,4.875 z m 4.46856,0.15625 q -0.64062,0 -1.17187,-0.1875 -0.51563,-0.20313 -0.90625,-0.54688 -0.375,-0.35937 -0.57813,-0.82812 -0.20312,-0.46875 -0.20312,-0.98438 0,-0.5625 0.25,-1.03125 0.26562,-0.48437 0.71875,-0.8125 0.46875,-0.34375 1.10937,-0.51562 0.65625,-0.1875 1.4375,-0.1875 0.625,0 1.28125,0.10937 0.65625,0.10938 1.17188,0.3125 l 0,-0.75 q 0,-1.10937 -0.64063,-1.75 -0.625,-0.64062 -1.70312,-0.64062 -0.67188,0 -1.34375,0.25 -0.65625,0.25 -1.34375,0.73437 l -0.375,-0.71875 q 0.8125,-0.54687 1.57812,-0.8125 0.76563,-0.28125 1.59375,-0.28125 1.53125,0 2.42188,0.89063 0.89062,0.875 0.89062,2.42187 l 0,3.76563 q 0,0.45312 0.39063,0.45312 l 0,0.95313 q -0.125,0.0156 -0.25,0.0156 -0.10938,0.0156 -0.1875,0.0156 -0.3125,0 -0.57813,-0.1875 -0.26562,-0.20313 -0.29687,-0.57813 l -0.0313,-0.65625 q -0.54688,0.73438 -1.4375,1.14063 -0.89063,0.40625 -1.79688,0.40625 z m 0.26563,-0.82813 q 0.73437,0 1.4375,-0.3125 0.71875,-0.3125 1.125,-0.85937 0.10937,-0.14063 0.1875,-0.29688 0.0937,-0.17187 0.0937,-0.32812 l 0,-1.35938 q -0.54688,-0.20312 -1.14063,-0.3125 -0.59375,-0.10937 -1.15625,-0.10937 -1.15625,0 -1.89062,0.46875 -0.73438,0.46875 -0.73438,1.29687 0,0.34375 0.125,0.67188 0.14063,0.3125 0.40625,0.57812 0.26563,0.25 0.64063,0.40625 0.39062,0.15625 0.90625,0.15625 z m 12.25238,0.67188 -3.07813,-4.26563 -1.79687,1.65625 0,2.60938 -1.07813,0 0,-11.6875 1.07813,0 0,7.9375 4.6875,-4.5625 1.23437,0 -3.40625,3.40625 3.53125,4.90625 -1.17187,0 z m 6.11951,0.15625 q -0.90625,0 -1.67188,-0.34375 -0.76562,-0.34375 -1.32812,-0.9375 -0.5625,-0.60938 -0.875,-1.39063 -0.3125,-0.78125 -0.3125,-1.67187 0,-0.89063 0.3125,-1.65625 0.3125,-0.78125 0.875,-1.35938 0.5625,-0.59375 1.3125,-0.9375 0.76562,-0.34375 1.67187,-0.34375 0.92188,0 1.67188,0.34375 0.76562,0.34375 1.29687,0.9375 0.54688,0.59375 0.84375,1.35938 0.3125,0.76562 0.3125,1.64062 0,0.125 -0.0156,0.25 0,0.125 -0.0156,0.17188 l -7.10937,0 q 0.0469,0.67187 0.3125,1.25 0.26562,0.5625 0.67187,0.98437 0.40625,0.40625 0.9375,0.64063 0.53125,0.23437 1.14063,0.23437 0.42187,0 0.8125,-0.10937 0.40625,-0.10938 0.73437,-0.29688 0.34375,-0.20312 0.60938,-0.48437 0.26562,-0.28125 0.40625,-0.60938 l 0.95312,0.25 q -0.20312,0.46875 -0.5625,0.84375 -0.34375,0.375 -0.8125,0.65625 -0.45312,0.28125 -1.01562,0.42188 -0.5625,0.15625 -1.15625,0.15625 z m 3.07812,-4.76563 q -0.0469,-0.67187 -0.3125,-1.21875 -0.26562,-0.5625 -0.67187,-0.95312 -0.40625,-0.40625 -0.95313,-0.625 -0.54687,-0.21875 -1.15625,-0.21875 -0.60937,0 -1.15625,0.21875 -0.53125,0.21875 -0.95312,0.625 -0.40625,0.39062 -0.65625,0.95312 -0.23438,0.5625 -0.28125,1.21875 l 6.14062,0 z m 6.82953,-2.76562 q -1.10937,0.0313 -1.92187,0.60937 -0.8125,0.57813 -1.15625,1.57813 l 0,5.1875 -1.07813,0 0,-8.34375 1.01563,0 0,2 q 0.4375,-0.875 1.14062,-1.45313 0.70313,-0.59375 1.51563,-0.59375 0.14062,0 0.26562,0 0.14063,0 0.21875,0.0156 l 0,1 z" />
  <path
     style="fill:#000000;fill-opacity:0;fill-rule:nonzero"
     inkscape:connector-curvature="0"
     id="path3901"
     d="m 104.20593,351.84664 69.67718,0" />
  <path
     style="stroke:#000000;stroke-width:2;stroke-linecap:butt;stroke-linejoin:round"
     inkscape:connector-curvature="0"
     id="path3903"
     d="m 116.20593,351.84664 45.67718,0" />
  <path
     style="fill:#000000;fill-rule:evenodd;stroke:#000000;stroke-width:2;stroke-linecap:butt"
     inkscape:connector-curvature="0"
     id="path3905"
     d="m 116.20593,348.54317 -9.0762,3.30347 9.0762,3.30346 z" />
  <path
     style="fill:#000000;fill-rule:evenodd;stroke:#000000;stroke-width:2;stroke-linecap:butt"
     inkscape:connector-curvature="0"
     id="path3907"
     d="m 161.88311,355.15011 9.07617,-3.30347 -9.07617,-3.30346 z" />
  <path
     style="fill:#cfe2f3;fill-rule:nonzero"
     inkscape:connector-curvature="0"
     id="path3909"
     d="m 87.438201,1.0093791 103.212619,0 0,39.9999999 -103.212619,0 z" />
  <path
     style="stroke:#000000;stroke-width:2;stroke-linecap:butt;stroke-linejoin:round"
     inkscape:connector-curvature="0"
     id="path3911"
     d="m 87.438201,1.0093791 103.212619,0 0,39.9999999 -103.212619,0 z" />
  <path
     style="fill:#000000;fill-rule:nonzero"
     inkscape:connector-curvature="0"
     id="path3913"
     d="m 104.7908,26.665629 4.75,-11.35938 0.92187,0 4.75,11.35938 -1.20312,0 -1.46875,-3.54688 -5.10938,0 -1.45312,3.54688 -1.1875,0 z m 5.21875,-10.04688 -2.32813,5.60938 4.60938,0 -2.28125,-5.60938 z m 6.84842,10.04688 0,-11.35938 4.70312,0 q 0.73438,0 1.34375,0.3125 0.625,0.3125 1.07813,0.8125 0.45312,0.5 0.6875,1.14063 0.25,0.64062 0.25,1.29687 0,0.70313 -0.23438,1.35938 -0.21875,0.64062 -0.65625,1.14062 -0.4375,0.5 -1.04687,0.8125 -0.59375,0.29688 -1.32813,0.29688 l -3.6875,0 0,4.1875 -1.10937,0 z m 1.10937,-5.1875 3.625,0 q 0.5,0 0.90625,-0.20313 0.40625,-0.21875 0.6875,-0.57812 0.29688,-0.375 0.45313,-0.84375 0.17187,-0.46875 0.17187,-0.98438 0,-0.51562 -0.1875,-0.98437 -0.1875,-0.48438 -0.5,-0.82813 -0.3125,-0.35937 -0.73437,-0.5625 -0.42188,-0.20312 -0.89063,-0.20312 l -3.53125,0 0,5.1875 z m 8.82663,5.1875 0,-11.34375 1.10938,0 0,11.34375 -1.10938,0 z m 10.39255,0.15625 q -1.3125,0 -1.98437,-0.89063 -0.67188,-0.90625 -0.67188,-2.70312 l 0,-4.90625 1.07813,0 0,4.71875 q 0,2.82812 1.9375,2.82812 0.48437,0 0.9375,-0.15625 0.46875,-0.17187 0.85937,-0.46875 0.39063,-0.3125 0.70313,-0.71875 0.3125,-0.42187 0.51562,-0.95312 l 0,-5.25 1.07813,0 0,6.9375 q 0,0.45312 0.40625,0.45312 l 0,0.95313 q -0.32813,0.0469 -0.45313,0.0469 -0.35937,0 -0.625,-0.21875 -0.26562,-0.23437 -0.26562,-0.5625 l 0,-1.15625 q -0.5625,0.98438 -1.5,1.51563 -0.92188,0.53125 -2.01563,0.53125 z m 9.72272,0 q -0.98438,0 -1.90625,-0.3125 -0.92188,-0.32813 -1.59375,-0.9375 l 0.48437,-0.73438 q 0.70313,0.57813 1.4375,0.875 0.73438,0.28125 1.5625,0.28125 1,0 1.59375,-0.40625 0.60938,-0.40625 0.60938,-1.15625 0,-0.35937 -0.15625,-0.59375 -0.15625,-0.23437 -0.46875,-0.40625 -0.3125,-0.17187 -0.79688,-0.3125 -0.46875,-0.14062 -1.09375,-0.28125 -0.71875,-0.17187 -1.25,-0.34375 -0.51562,-0.1875 -0.85937,-0.40625 -0.34375,-0.21875 -0.51563,-0.54687 -0.17187,-0.32813 -0.17187,-0.82813 0,-0.625 0.25,-1.09375 0.25,-0.48437 0.67187,-0.79687 0.42188,-0.3125 0.98438,-0.46875 0.57812,-0.17188 1.21875,-0.17188 0.95312,0 1.73437,0.3125 0.79688,0.3125 1.26563,0.82813 l -0.51563,0.64062 q -0.46875,-0.48437 -1.14062,-0.71875 -0.65625,-0.23437 -1.375,-0.23437 -0.4375,0 -0.8125,0.0937 -0.35938,0.0781 -0.64063,0.26562 -0.28125,0.1875 -0.4375,0.48438 -0.15625,0.29687 -0.15625,0.70312 0,0.32813 0.10938,0.54688 0.10937,0.20312 0.35937,0.35937 0.26563,0.14063 0.65625,0.26563 0.39063,0.125 0.95313,0.25 0.79687,0.1875 1.40625,0.39062 0.60937,0.1875 1.01562,0.45313 0.40625,0.25 0.60938,0.625 0.21875,0.35937 0.21875,0.875 0,1.15625 -0.89063,1.82812 -0.875,0.67188 -2.35937,0.67188 z m 8.6358,0 q -0.90625,0 -1.67187,-0.34375 -0.76563,-0.34375 -1.32813,-0.9375 -0.5625,-0.60938 -0.875,-1.39063 -0.3125,-0.78125 -0.3125,-1.67187 0,-0.89063 0.3125,-1.65625 0.3125,-0.78125 0.875,-1.35938 0.5625,-0.59375 1.3125,-0.9375 0.76563,-0.34375 1.67188,-0.34375 0.92187,0 1.67187,0.34375 0.76563,0.34375 1.29688,0.9375 0.54687,0.59375 0.84375,1.35938 0.3125,0.76562 0.3125,1.64062 0,0.125 -0.0156,0.25 0,0.125 -0.0156,0.17188 l -7.10938,0 q 0.0469,0.67187 0.3125,1.25 0.26563,0.5625 0.67188,0.98437 0.40625,0.40625 0.9375,0.64063 0.53125,0.23437 1.14062,0.23437 0.42188,0 0.8125,-0.10937 0.40625,-0.10938 0.73438,-0.29688 0.34375,-0.20312 0.60937,-0.48437 0.26563,-0.28125 0.40625,-0.60938 l 0.95313,0.25 q -0.20313,0.46875 -0.5625,0.84375 -0.34375,0.375 -0.8125,0.65625 -0.45313,0.28125 -1.01563,0.42188 -0.5625,0.15625 -1.15625,0.15625 z m 3.07813,-4.76563 q -0.0469,-0.67187 -0.3125,-1.21875 -0.26563,-0.5625 -0.67188,-0.95312 -0.40625,-0.40625 -0.95312,-0.625 -0.54688,-0.21875 -1.15625,-0.21875 -0.60938,0 -1.15625,0.21875 -0.53125,0.21875 -0.95313,0.625 -0.40625,0.39062 -0.65625,0.95312 -0.23437,0.5625 -0.28125,1.21875 l 6.14063,0 z m 6.82953,-2.76562 q -1.10938,0.0313 -1.92188,0.60937 -0.8125,0.57813 -1.15625,1.57813 l 0,5.1875 -1.07812,0 0,-8.34375 1.01562,0 0,2 q 0.4375,-0.875 1.14063,-1.45313 0.70312,-0.59375 1.51562,-0.59375 0.14063,0 0.26563,0 0.14062,0 0.21875,0.0156 l 0,1 z m 4.25659,7.53125 q -0.98438,0 -1.90625,-0.3125 -0.92188,-0.32813 -1.59375,-0.9375 l 0.48437,-0.73438 q 0.70313,0.57813 1.4375,0.875 0.73438,0.28125 1.5625,0.28125 1,0 1.59375,-0.40625 0.60938,-0.40625 0.60938,-1.15625 0,-0.35937 -0.15625,-0.59375 -0.15625,-0.23437 -0.46875,-0.40625 -0.3125,-0.17187 -0.79688,-0.3125 -0.46875,-0.14062 -1.09375,-0.28125 -0.71875,-0.17187 -1.25,-0.34375 -0.51562,-0.1875 -0.85937,-0.40625 -0.34375,-0.21875 -0.51563,-0.54687 -0.17187,-0.32813 -0.17187,-0.82813 0,-0.625 0.25,-1.09375 0.25,-0.48437 0.67187,-0.79687 0.42188,-0.3125 0.98438,-0.46875 0.57812,-0.17188 1.21875,-0.17188 0.95312,0 1.73437,0.3125 0.79688,0.3125 1.26563,0.82813 l -0.51563,0.64062 q -0.46875,-0.48437 -1.14062,-0.71875 -0.65625,-0.23437 -1.375,-0.23437 -0.4375,0 -0.8125,0.0937 -0.35938,0.0781 -0.64063,0.26562 -0.28125,0.1875 -0.4375,0.48438 -0.15625,0.29687 -0.15625,0.70312 0,0.32813 0.10938,0.54688 0.10937,0.20312 0.35937,0.35937 0.26563,0.14063 0.65625,0.26563 0.39063,0.125 0.95313,0.25 0.79687,0.1875 1.40625,0.39062 0.60937,0.1875 1.01562,0.45313 0.40625,0.25 0.60938,0.625 0.21875,0.35937 0.21875,0.875 0,1.15625 -0.89063,1.82812 -0.875,0.67188 -2.35937,0.67188 z" />
  <path
     style="fill:#cfe2f3;fill-rule:nonzero"
     inkscape:connector-curvature="0"
     id="path3915"
     d="m 173.88311,251.84664 103.21258,0 0,40 -103.21258,0 z" />
  <path
     style="stroke:#000000;stroke-width:2;stroke-linecap:butt;stroke-linejoin:round"
     inkscape:connector-curvature="0"
     id="path3917"
     d="m 173.88311,251.84664 103.21258,0 0,40 -103.21258,0 z" />
  <path
     style="fill:#000000;fill-rule:nonzero"
     inkscape:connector-curvature="0"
     id="path3919"
     d="m 190.48419,277.61227 q -0.85938,0 -1.57813,-0.35938 -0.71875,-0.35937 -1.23437,-0.95312 -0.51563,-0.59375 -0.8125,-1.35938 -0.28125,-0.76562 -0.28125,-1.57812 0,-0.875 0.28125,-1.65625 0.28125,-0.79688 0.78125,-1.39063 0.51562,-0.59375 1.21875,-0.9375 0.71875,-0.35937 1.59375,-0.35937 1.0625,0 1.84375,0.54687 0.79687,0.53125 1.35937,1.34375 l 0,-1.75 0.96875,0 0,8.375 q 0,0.85938 -0.32812,1.51563 -0.32813,0.67187 -0.89063,1.125 -0.54687,0.45312 -1.29687,0.67187 -0.75,0.21875 -1.57813,0.21875 -1.42187,0 -2.3125,-0.51562 -0.875,-0.5 -1.42187,-1.35938 l 0.67187,-0.53125 q 0.5,0.79688 1.3125,1.17188 0.8125,0.375 1.75,0.375 0.60938,0 1.15625,-0.17188 0.54688,-0.15625 0.95313,-0.48437 0.42187,-0.32813 0.65625,-0.84375 0.23437,-0.5 0.23437,-1.17188 l 0,-1.64062 q -0.48437,0.79687 -1.3125,1.26562 -0.82812,0.45313 -1.73437,0.45313 z m 0.29687,-0.90625 q 0.48438,0 0.9375,-0.17188 0.46875,-0.1875 0.84375,-0.48437 0.39063,-0.29688 0.64063,-0.65625 0.25,-0.375 0.32812,-0.75 l 0,-2.57813 q -0.17187,-0.45312 -0.48437,-0.82812 -0.3125,-0.39063 -0.70313,-0.65625 -0.375,-0.28125 -0.8125,-0.4375 -0.4375,-0.15625 -0.89062,-0.15625 -0.70313,0 -1.25,0.29687 -0.54688,0.29688 -0.9375,0.78125 -0.375,0.46875 -0.57813,1.07813 -0.1875,0.60937 -0.1875,1.23437 0,0.67188 0.23438,1.28125 0.23437,0.60938 0.65625,1.0625 0.42187,0.45313 0.98437,0.71875 0.5625,0.26563 1.21875,0.26563 z m 6.23102,-10.89063 1.07813,0 0,9.79688 q 0,0.46875 0.25,0.73437 0.26562,0.26563 0.73437,0.26563 0.17188,0 0.40625,-0.0469 0.25,-0.0469 0.45313,-0.14062 l 0.20312,0.89062 q -0.3125,0.125 -0.75,0.20313 -0.4375,0.0781 -0.76562,0.0781 -0.75,0 -1.1875,-0.42187 -0.42188,-0.42188 -0.42188,-1.1875 l 0,-10.17188 z m 6.38025,11.84375 q -0.64062,0 -1.17187,-0.1875 -0.51563,-0.20312 -0.90625,-0.54687 -0.375,-0.35938 -0.57813,-0.82813 -0.20312,-0.46875 -0.20312,-0.98437 0,-0.5625 0.25,-1.03125 0.26562,-0.48438 0.71875,-0.8125 0.46875,-0.34375 1.10937,-0.51563 0.65625,-0.1875 1.4375,-0.1875 0.625,0 1.28125,0.10938 0.65625,0.10937 1.17188,0.3125 l 0,-0.75 q 0,-1.10938 -0.64063,-1.75 -0.625,-0.64063 -1.70312,-0.64063 -0.67188,0 -1.34375,0.25 -0.65625,0.25 -1.34375,0.73438 l -0.375,-0.71875 q 0.8125,-0.54688 1.57812,-0.8125 0.76563,-0.28125 1.59375,-0.28125 1.53125,0 2.42188,0.89062 0.89062,0.875 0.89062,2.42188 l 0,3.76562 q 0,0.45313 0.39063,0.45313 l 0,0.95312 q -0.125,0.0156 -0.25,0.0156 -0.10938,0.0156 -0.1875,0.0156 -0.3125,0 -0.57813,-0.1875 -0.26562,-0.20312 -0.29687,-0.57812 l -0.0313,-0.65625 q -0.54688,0.73437 -1.4375,1.14062 -0.89063,0.40625 -1.79688,0.40625 z m 0.26563,-0.82812 q 0.73437,0 1.4375,-0.3125 0.71875,-0.3125 1.125,-0.85938 0.10937,-0.14062 0.1875,-0.29687 0.0937,-0.17188 0.0937,-0.32813 l 0,-1.35937 q -0.54688,-0.20313 -1.14063,-0.3125 -0.59375,-0.10938 -1.15625,-0.10938 -1.15625,0 -1.89062,0.46875 -0.73438,0.46875 -0.73438,1.29688 0,0.34375 0.125,0.67187 0.14063,0.3125 0.40625,0.57813 0.26563,0.25 0.64063,0.40625 0.39062,0.15625 0.90625,0.15625 z m 13.29925,0.67187 -1.07812,0 0,-4.65625 q 0,-1.48437 -0.4375,-2.15625 -0.4375,-0.67187 -1.34375,-0.67187 -0.48438,0 -0.96875,0.17187 -0.46875,0.17188 -0.89063,0.5 -0.40625,0.3125 -0.71875,0.76563 -0.3125,0.4375 -0.48437,0.9375 l 0,5.10937 -1.07813,0 0,-8.34375 0.98438,0 0,1.89063 q 0.26562,-0.4375 0.64062,-0.8125 0.375,-0.375 0.82813,-0.64063 0.46875,-0.28125 0.98437,-0.42187 0.53125,-0.15625 1.09375,-0.15625 0.70313,0 1.17188,0.26562 0.46875,0.25 0.75,0.71875 0.29687,0.45313 0.42187,1.125 0.125,0.67188 0.125,1.5 l 0,4.875 z m 1.71717,-4.1875 q 0,-0.89062 0.29687,-1.67187 0.3125,-0.78125 0.85938,-1.35938 0.5625,-0.59375 1.32812,-0.92187 0.76563,-0.34375 1.6875,-0.34375 1.1875,0 2.0625,0.54687 0.89063,0.53125 1.32813,1.4375 l -1.04688,0.34375 q -0.35937,-0.64062 -0.98437,-1 -0.625,-0.35937 -1.39063,-0.35937 -0.64062,0 -1.1875,0.25 -0.54687,0.25 -0.96875,0.70312 -0.40625,0.4375 -0.64062,1.04688 -0.21875,0.60937 -0.21875,1.32812 0,0.70313 0.23437,1.32813 0.23438,0.625 0.65625,1.07812 0.42188,0.45313 0.96875,0.71875 0.54688,0.26563 1.17188,0.26563 0.40625,0 0.79687,-0.10938 0.39063,-0.125 0.71875,-0.3125 0.34375,-0.20312 0.57813,-0.45312 0.25,-0.26563 0.34375,-0.54688 l 1.04687,0.3125 q -0.17187,0.45313 -0.51562,0.82813 -0.32813,0.375 -0.78125,0.65625 -0.45313,0.28125 -1.01563,0.42187 -0.54687,0.15625 -1.14062,0.15625 -0.90625,0 -1.67188,-0.34375 -0.76562,-0.34375 -1.32812,-0.9375 -0.5625,-0.60937 -0.875,-1.39062 -0.3125,-0.78125 -0.3125,-1.67188 z m 12.98748,4.34375 q -0.90625,0 -1.67187,-0.34375 -0.76563,-0.34375 -1.32813,-0.9375 -0.5625,-0.60937 -0.875,-1.39062 -0.3125,-0.78125 -0.3125,-1.67188 0,-0.89062 0.3125,-1.65625 0.3125,-0.78125 0.875,-1.35937 0.5625,-0.59375 1.3125,-0.9375 0.76563,-0.34375 1.67188,-0.34375 0.92187,0 1.67187,0.34375 0.76563,0.34375 1.29688,0.9375 0.54687,0.59375 0.84375,1.35937 0.3125,0.76563 0.3125,1.64063 0,0.125 -0.0156,0.25 0,0.125 -0.0156,0.17187 l -7.10938,0 q 0.0469,0.67188 0.3125,1.25 0.26563,0.5625 0.67188,0.98438 0.40625,0.40625 0.9375,0.64062 0.53125,0.23438 1.14062,0.23438 0.42188,0 0.8125,-0.10938 0.40625,-0.10937 0.73438,-0.29687 0.34375,-0.20313 0.60937,-0.48438 0.26563,-0.28125 0.40625,-0.60937 l 0.95313,0.25 q -0.20313,0.46875 -0.5625,0.84375 -0.34375,0.375 -0.8125,0.65625 -0.45313,0.28125 -1.01563,0.42187 -0.5625,0.15625 -1.15625,0.15625 z m 3.07813,-4.76562 q -0.0469,-0.67188 -0.3125,-1.21875 -0.26563,-0.5625 -0.67188,-0.95313 -0.40625,-0.40625 -0.95312,-0.625 -0.54688,-0.21875 -1.15625,-0.21875 -0.60938,0 -1.15625,0.21875 -0.53125,0.21875 -0.95313,0.625 -0.40625,0.39063 -0.65625,0.95313 -0.23437,0.5625 -0.28125,1.21875 l 6.14063,0 z m 2.5639,0.75 0,-1 4.65625,0 0,1 -4.65625,0 z m 9.08051,4.01562 q -0.64063,0 -1.17188,-0.1875 -0.51562,-0.20312 -0.90625,-0.54687 -0.375,-0.35938 -0.57812,-0.82813 -0.20313,-0.46875 -0.20313,-0.98437 0,-0.5625 0.25,-1.03125 0.26563,-0.48438 0.71875,-0.8125 0.46875,-0.34375 1.10938,-0.51563 0.65625,-0.1875 1.4375,-0.1875 0.625,0 1.28125,0.10938 0.65625,0.10937 1.17187,0.3125 l 0,-0.75 q 0,-1.10938 -0.64062,-1.75 -0.625,-0.64063 -1.70313,-0.64063 -0.67187,0 -1.34375,0.25 -0.65625,0.25 -1.34375,0.73438 l -0.375,-0.71875 q 0.8125,-0.54688 1.57813,-0.8125 0.76562,-0.28125 1.59375,-0.28125 1.53125,0 2.42187,0.89062 0.89063,0.875 0.89063,2.42188 l 0,3.76562 q 0,0.45313 0.39062,0.45313 l 0,0.95312 q -0.125,0.0156 -0.25,0.0156 -0.10937,0.0156 -0.1875,0.0156 -0.3125,0 -0.57812,-0.1875 -0.26563,-0.20312 -0.29688,-0.57812 l -0.0313,-0.65625 q -0.54687,0.73437 -1.4375,1.14062 -0.89062,0.40625 -1.79687,0.40625 z m 0.26562,-0.82812 q 0.73438,0 1.4375,-0.3125 0.71875,-0.3125 1.125,-0.85938 0.10938,-0.14062 0.1875,-0.29687 0.0937,-0.17188 0.0937,-0.32813 l 0,-1.35937 q -0.54687,-0.20313 -1.14062,-0.3125 -0.59375,-0.10938 -1.15625,-0.10938 -1.15625,0 -1.89063,0.46875 -0.73437,0.46875 -0.73437,1.29688 0,0.34375 0.125,0.67187 0.14062,0.3125 0.40625,0.57813 0.26562,0.25 0.64062,0.40625 0.39063,0.15625 0.90625,0.15625 z m 10.56494,0.82812 q -1.04687,0 -1.875,-0.53125 -0.8125,-0.53125 -1.3125,-1.35937 l 0,5.14062 -1.07812,0 0,-11.75 0.96875,0 0,1.625 q 0.51562,-0.78125 1.32812,-1.26562 0.8125,-0.5 1.78125,-0.5 0.85938,0 1.57813,0.35937 0.73437,0.35938 1.26562,0.96875 0.53125,0.59375 0.82813,1.39063 0.29687,0.78125 0.29687,1.60937 0,0.875 -0.28125,1.65625 -0.26562,0.78125 -0.78125,1.375 -0.5,0.59375 -1.20312,0.9375 -0.6875,0.34375 -1.51563,0.34375 z m -0.29687,-0.95312 q 0.67187,0 1.20312,-0.28125 0.54688,-0.29688 0.9375,-0.76563 0.40625,-0.46875 0.60938,-1.0625 0.20312,-0.60937 0.20312,-1.25 0,-0.67187 -0.25,-1.28125 -0.23437,-0.60937 -0.65625,-1.0625 -0.40625,-0.46875 -0.98437,-0.73437 -0.5625,-0.28125 -1.21875,-0.28125 -0.40625,0 -0.85938,0.17187 -0.4375,0.15625 -0.84375,0.4375 -0.40625,0.28125 -0.6875,0.65625 -0.28125,0.375 -0.34375,0.79688 l 0,2.5625 q 0.20313,0.4375 0.5,0.82812 0.29688,0.375 0.67188,0.65625 0.375,0.28125 0.8125,0.45313 0.4375,0.15625 0.90625,0.15625 z m 5.87127,0.79687 0,-8.34375 1.07813,0 0,8.34375 -1.07813,0 z m 0,-10.07812 0,-1.60938 1.07813,0 0,1.60938 -1.07813,0 z" />
  <path
     style="fill:#cfe2f3;fill-rule:nonzero"
     inkscape:connector-curvature="0"
     id="path3921"
     d="m 173.88311,211.84664 103.21258,0 0,40 -103.21258,0 z" />
  <path
     style="stroke:#000000;stroke-width:2;stroke-linecap:butt;stroke-linejoin:round"
     inkscape:connector-curvature="0"
     id="path3923"
     d="m 173.88311,211.84664 103.21258,0 0,40 -103.21258,0 z" />
  <path
     style="fill:#000000;fill-rule:nonzero"
     inkscape:connector-curvature="0"
     id="path3925"
     d="m 198.72631,237.50289 -3.07813,-4.26563 -1.79687,1.65625 0,2.60938 -1.07813,0 0,-11.6875 1.07813,0 0,7.9375 4.6875,-4.5625 1.23437,0 -3.40625,3.40625 3.53125,4.90625 -1.17187,0 z m 6.11951,0.15625 q -0.90625,0 -1.67188,-0.34375 -0.76562,-0.34375 -1.32812,-0.9375 -0.5625,-0.60938 -0.875,-1.39063 -0.3125,-0.78125 -0.3125,-1.67187 0,-0.89063 0.3125,-1.65625 0.3125,-0.78125 0.875,-1.35938 0.5625,-0.59375 1.3125,-0.9375 0.76562,-0.34375 1.67187,-0.34375 0.92188,0 1.67188,0.34375 0.76562,0.34375 1.29687,0.9375 0.54688,0.59375 0.84375,1.35938 0.3125,0.76562 0.3125,1.64062 0,0.125 -0.0156,0.25 0,0.125 -0.0156,0.17188 l -7.10937,0 q 0.0469,0.67187 0.3125,1.25 0.26562,0.5625 0.67187,0.98437 0.40625,0.40625 0.9375,0.64063 0.53125,0.23437 1.14063,0.23437 0.42187,0 0.8125,-0.10937 0.40625,-0.10938 0.73437,-0.29688 0.34375,-0.20312 0.60938,-0.48437 0.26562,-0.28125 0.40625,-0.60938 l 0.95312,0.25 q -0.20312,0.46875 -0.5625,0.84375 -0.34375,0.375 -0.8125,0.65625 -0.45312,0.28125 -1.01562,0.42188 -0.5625,0.15625 -1.15625,0.15625 z m 3.07812,-4.76563 q -0.0469,-0.67187 -0.3125,-1.21875 -0.26562,-0.5625 -0.67187,-0.95312 -0.40625,-0.40625 -0.95313,-0.625 -0.54687,-0.21875 -1.15625,-0.21875 -0.60937,0 -1.15625,0.21875 -0.53125,0.21875 -0.95312,0.625 -0.40625,0.39062 -0.65625,0.95312 -0.23438,0.5625 -0.28125,1.21875 l 6.14062,0 z m 3.14203,7.1875 q 0.0937,0.0156 0.17188,0.0156 0.0781,0.0156 0.15625,0.0156 0.15625,0 0.34375,-0.0313 0.1875,-0.0313 0.26562,-0.0625 0.0781,-0.0313 0.15625,-0.14062 0.0937,-0.10938 0.23438,-0.375 0.14062,-0.25 0.34375,-0.73438 0.20312,-0.46875 0.53125,-1.26562 l -3.64063,-8.34375 1.14063,0 3.09375,7.32812 2.84375,-7.32812 1.03125,0 -4.32813,10.76562 q -0.23437,0.59375 -0.65625,0.875 -0.40625,0.28125 -1.14062,0.28125 -0.29688,0 -0.54688,-0.0469 l 0,-0.95313 z m 11.00012,-2.42187 q -0.98437,0 -1.90625,-0.3125 -0.92187,-0.32813 -1.59375,-0.9375 l 0.48438,-0.73438 q 0.70312,0.57813 1.4375,0.875 0.73437,0.28125 1.5625,0.28125 1,0 1.59375,-0.40625 0.60937,-0.40625 0.60937,-1.15625 0,-0.35937 -0.15625,-0.59375 -0.15625,-0.23437 -0.46875,-0.40625 -0.3125,-0.17187 -0.79687,-0.3125 -0.46875,-0.14062 -1.09375,-0.28125 -0.71875,-0.17187 -1.25,-0.34375 -0.51563,-0.1875 -0.85938,-0.40625 -0.34375,-0.21875 -0.51562,-0.54687 -0.17188,-0.32813 -0.17188,-0.82813 0,-0.625 0.25,-1.09375 0.25,-0.48437 0.67188,-0.79687 0.42187,-0.3125 0.98437,-0.46875 0.57813,-0.17188 1.21875,-0.17188 0.95313,0 1.73438,0.3125 0.79687,0.3125 1.26562,0.82813 l -0.51562,0.64062 q -0.46875,-0.48437 -1.14063,-0.71875 -0.65625,-0.23437 -1.375,-0.23437 -0.4375,0 -0.8125,0.0937 -0.35937,0.0781 -0.64062,0.26562 -0.28125,0.1875 -0.4375,0.48438 -0.15625,0.29687 -0.15625,0.70312 0,0.32813 0.10937,0.54688 0.10938,0.20312 0.35938,0.35937 0.26562,0.14063 0.65625,0.26563 0.39062,0.125 0.95312,0.25 0.79688,0.1875 1.40625,0.39062 0.60938,0.1875 1.01563,0.45313 0.40625,0.25 0.60937,0.625 0.21875,0.35937 0.21875,0.875 0,1.15625 -0.89062,1.82812 -0.875,0.67188 -2.35938,0.67188 z m 9.02643,-0.5625 q -0.0937,0.0469 -0.28125,0.14062 -0.1875,0.0781 -0.4375,0.15625 -0.23437,0.0781 -0.54687,0.14063 -0.29688,0.0625 -0.625,0.0625 -0.35938,0 -0.6875,-0.0937 -0.3125,-0.0937 -0.54688,-0.29688 -0.23437,-0.20312 -0.39062,-0.5 -0.14063,-0.3125 -0.14063,-0.70312 l 0,-5.96875 -1.14062,0 0,-0.875 1.14062,0 0,-2.8125 1.09375,0 0,2.8125 1.92188,0 0,0.875 -1.92188,0 0,5.65625 q 0.0313,0.46875 0.3125,0.6875 0.29688,0.21875 0.6875,0.21875 0.46875,0 0.8125,-0.15625 0.35938,-0.15625 0.45313,-0.21875 l 0.29687,0.875 z m 4.87451,0.5625 q -0.90625,0 -1.67187,-0.34375 -0.75,-0.34375 -1.3125,-0.9375 -0.54688,-0.59375 -0.85938,-1.375 -0.29687,-0.78125 -0.29687,-1.64063 0,-0.89062 0.3125,-1.67187 0.3125,-0.78125 0.85937,-1.375 0.5625,-0.59375 1.3125,-0.9375 0.76563,-0.35938 1.65625,-0.35938 0.89063,0 1.65625,0.35938 0.76563,0.34375 1.3125,0.9375 0.54688,0.59375 0.85938,1.375 0.3125,0.78125 0.3125,1.67187 0,0.85938 -0.3125,1.64063 -0.3125,0.78125 -0.85938,1.375 -0.54687,0.59375 -1.3125,0.9375 -0.76562,0.34375 -1.65625,0.34375 z m -3.01562,-4.28125 q 0,0.70312 0.21875,1.3125 0.23437,0.59375 0.64062,1.04687 0.42188,0.45313 0.96875,0.71875 0.54688,0.25 1.17188,0.25 0.625,0 1.17187,-0.26562 0.5625,-0.26563 0.96875,-0.71875 0.42188,-0.45313 0.65625,-1.0625 0.25,-0.60938 0.25,-1.3125 0,-0.6875 -0.25,-1.29688 -0.23437,-0.625 -0.65625,-1.07812 -0.40625,-0.45313 -0.95312,-0.71875 -0.54688,-0.26563 -1.17188,-0.26563 -0.625,0 -1.17187,0.26563 -0.54688,0.26562 -0.96875,0.73437 -0.40625,0.45313 -0.64063,1.07813 -0.23437,0.60937 -0.23437,1.3125 z m 15.94189,4.125 -1.07812,0 0,-4.65625 q 0,-1.48438 -0.4375,-2.15625 -0.4375,-0.67188 -1.34375,-0.67188 -0.48438,0 -0.96875,0.17188 -0.46875,0.17187 -0.89063,0.5 -0.40625,0.3125 -0.71875,0.76562 -0.3125,0.4375 -0.48437,0.9375 l 0,5.10938 -1.07813,0 0,-8.34375 0.98438,0 0,1.89062 q 0.26562,-0.4375 0.64062,-0.8125 0.375,-0.375 0.82813,-0.64062 0.46875,-0.28125 0.98437,-0.42188 0.53125,-0.15625 1.09375,-0.15625 0.70313,0 1.17188,0.26563 0.46875,0.25 0.75,0.71875 0.29687,0.45312 0.42187,1.125 0.125,0.67187 0.125,1.5 l 0,4.875 z m 5.90467,0.15625 q -0.90625,0 -1.67188,-0.34375 -0.76562,-0.34375 -1.32812,-0.9375 -0.5625,-0.60938 -0.875,-1.39063 -0.3125,-0.78125 -0.3125,-1.67187 0,-0.89063 0.3125,-1.65625 0.3125,-0.78125 0.875,-1.35938 0.5625,-0.59375 1.3125,-0.9375 0.76562,-0.34375 1.67187,-0.34375 0.92188,0 1.67188,0.34375 0.76562,0.34375 1.29687,0.9375 0.54688,0.59375 0.84375,1.35938 0.3125,0.76562 0.3125,1.64062 0,0.125 -0.0156,0.25 0,0.125 -0.0156,0.17188 l -7.10937,0 q 0.0469,0.67187 0.3125,1.25 0.26562,0.5625 0.67187,0.98437 0.40625,0.40625 0.9375,0.64063 0.53125,0.23437 1.14063,0.23437 0.42187,0 0.8125,-0.10937 0.40625,-0.10938 0.73437,-0.29688 0.34375,-0.20312 0.60938,-0.48437 0.26562,-0.28125 0.40625,-0.60938 l 0.95312,0.25 q -0.20312,0.46875 -0.5625,0.84375 -0.34375,0.375 -0.8125,0.65625 -0.45312,0.28125 -1.01562,0.42188 -0.5625,0.15625 -1.15625,0.15625 z m 3.07812,-4.76563 q -0.0469,-0.67187 -0.3125,-1.21875 -0.26562,-0.5625 -0.67187,-0.95312 -0.40625,-0.40625 -0.95313,-0.625 -0.54687,-0.21875 -1.15625,-0.21875 -0.60937,0 -1.15625,0.21875 -0.53125,0.21875 -0.95312,0.625 -0.40625,0.39062 -0.65625,0.95312 -0.23438,0.5625 -0.28125,1.21875 l 6.14062,0 z" />
  <path
     style="fill:#cfe2f3;fill-rule:nonzero"
     inkscape:connector-curvature="0"
     id="path3927"
     d="m 173.88311,171.84664 103.21258,0 0,40 -103.21258,0 z" />
  <path
     style="stroke:#000000;stroke-width:2;stroke-linecap:butt;stroke-linejoin:round"
     inkscape:connector-curvature="0"
     id="path3929"
     d="m 173.88311,171.84664 103.21258,0 0,40 -103.21258,0 z" />
  <path
     style="fill:#000000;fill-rule:nonzero"
     inkscape:connector-curvature="0"
     id="path3931"
     d="m 206.46915,197.50289 -1.07813,0 0,-4.65625 q 0,-1.42188 -0.5,-2.125 -0.48437,-0.70313 -1.42187,-0.70313 -0.46875,0 -0.92188,0.1875 -0.45312,0.17188 -0.85937,0.5 -0.40625,0.3125 -0.70313,0.75 -0.28125,0.4375 -0.4375,0.9375 l 0,5.10938 -1.07812,0 0,-11.6875 1.07812,0 0,5.23437 q 0.51563,-0.9375 1.39063,-1.48437 0.89062,-0.54688 1.89062,-0.54688 0.71875,0 1.21875,0.26563 0.51563,0.26562 0.82813,0.73437 0.3125,0.46875 0.45312,1.14063 0.14063,0.65625 0.14063,1.46875 l 0,4.875 z m 5.85779,0.15625 q -0.90625,0 -1.67188,-0.34375 -0.75,-0.34375 -1.3125,-0.9375 -0.54687,-0.59375 -0.85937,-1.375 -0.29688,-0.78125 -0.29688,-1.64063 0,-0.89062 0.3125,-1.67187 0.3125,-0.78125 0.85938,-1.375 0.5625,-0.59375 1.3125,-0.9375 0.76562,-0.35938 1.65625,-0.35938 0.89062,0 1.65625,0.35938 0.76562,0.34375 1.3125,0.9375 0.54687,0.59375 0.85937,1.375 0.3125,0.78125 0.3125,1.67187 0,0.85938 -0.3125,1.64063 -0.3125,0.78125 -0.85937,1.375 -0.54688,0.59375 -1.3125,0.9375 -0.76563,0.34375 -1.65625,0.34375 z m -3.01563,-4.28125 q 0,0.70312 0.21875,1.3125 0.23438,0.59375 0.64063,1.04687 0.42187,0.45313 0.96875,0.71875 0.54687,0.25 1.17187,0.25 0.625,0 1.17188,-0.26562 0.5625,-0.26563 0.96875,-0.71875 0.42187,-0.45313 0.65625,-1.0625 0.25,-0.60938 0.25,-1.3125 0,-0.6875 -0.25,-1.29688 -0.23438,-0.625 -0.65625,-1.07812 -0.40625,-0.45313 -0.95313,-0.71875 -0.54687,-0.26563 -1.17187,-0.26563 -0.625,0 -1.17188,0.26563 -0.54687,0.26562 -0.96875,0.73437 -0.40625,0.45313 -0.64062,1.07813 -0.23438,0.60937 -0.23438,1.3125 z m 13.09815,-3.25 q -1.10938,0.0313 -1.92188,0.60937 -0.8125,0.57813 -1.15625,1.57813 l 0,5.1875 -1.07812,0 0,-8.34375 1.01562,0 0,2 q 0.4375,-0.875 1.14063,-1.45313 0.70312,-0.59375 1.51562,-0.59375 0.14063,0 0.26563,0 0.14062,0 0.21875,0.0156 l 0,1 z m 1.45978,7.375 0,-8.34375 1.07812,0 0,8.34375 -1.07812,0 z m 0,-10.07813 0,-1.60937 1.07812,0 0,1.60937 -1.07812,0 z m 2.70526,9.34375 5.625,-6.78125 -5.5,0 0,-0.82812 6.6875,0 0,0.75 -5.60938,6.78125 5.60938,0 0,0.8125 -6.8125,0 0,-0.73438 z m 12.0885,0.89063 q -0.90625,0 -1.67188,-0.34375 -0.75,-0.34375 -1.3125,-0.9375 -0.54687,-0.59375 -0.85937,-1.375 -0.29688,-0.78125 -0.29688,-1.64063 0,-0.89062 0.3125,-1.67187 0.3125,-0.78125 0.85938,-1.375 0.5625,-0.59375 1.3125,-0.9375 0.76562,-0.35938 1.65625,-0.35938 0.89062,0 1.65625,0.35938 0.76562,0.34375 1.3125,0.9375 0.54687,0.59375 0.85937,1.375 0.3125,0.78125 0.3125,1.67187 0,0.85938 -0.3125,1.64063 -0.3125,0.78125 -0.85937,1.375 -0.54688,0.59375 -1.3125,0.9375 -0.76563,0.34375 -1.65625,0.34375 z m -3.01563,-4.28125 q 0,0.70312 0.21875,1.3125 0.23438,0.59375 0.64063,1.04687 0.42187,0.45313 0.96875,0.71875 0.54687,0.25 1.17187,0.25 0.625,0 1.17188,-0.26562 0.5625,-0.26563 0.96875,-0.71875 0.42187,-0.45313 0.65625,-1.0625 0.25,-0.60938 0.25,-1.3125 0,-0.6875 -0.25,-1.29688 -0.23438,-0.625 -0.65625,-1.07812 -0.40625,-0.45313 -0.95313,-0.71875 -0.54687,-0.26563 -1.17187,-0.26563 -0.625,0 -1.17188,0.26563 -0.54687,0.26562 -0.96875,0.73437 -0.40625,0.45313 -0.64062,1.07813 -0.23438,0.60937 -0.23438,1.3125 z m 15.9419,4.125 -1.07813,0 0,-4.65625 q 0,-1.48438 -0.4375,-2.15625 -0.4375,-0.67188 -1.34375,-0.67188 -0.48437,0 -0.96875,0.17188 -0.46875,0.17187 -0.89062,0.5 -0.40625,0.3125 -0.71875,0.76562 -0.3125,0.4375 -0.48438,0.9375 l 0,5.10938 -1.07812,0 0,-8.34375 0.98437,0 0,1.89062 q 0.26563,-0.4375 0.64063,-0.8125 0.375,-0.375 0.82812,-0.64062 0.46875,-0.28125 0.98438,-0.42188 0.53125,-0.15625 1.09375,-0.15625 0.70312,0 1.17187,0.26563 0.46875,0.25 0.75,0.71875 0.29688,0.45312 0.42188,1.125 0.125,0.67187 0.125,1.5 l 0,4.875 z" />
  <path
     style="fill:#000000;fill-opacity:0;fill-rule:nonzero"
     inkscape:connector-curvature="0"
     id="path3933"
     d="M 139.04449,41.009379 52.599631,171.84665" />
  <path
     style="stroke:#000000;stroke-width:2;stroke-linecap:butt;stroke-linejoin:round"
     inkscape:connector-curvature="0"
     id="path3935"
     d="M 139.04449,41.009379 52.599631,171.84665" />
  <path
     style="fill:#000000;fill-opacity:0;fill-rule:nonzero"
     inkscape:connector-curvature="0"
     id="path3937"
     d="M 225.48935,171.84664 139.04447,41.009369" />
  <path
     style="stroke:#000000;stroke-width:2;stroke-linecap:butt;stroke-linejoin:round"
     inkscape:connector-curvature="0"
     id="path3939"
     d="M 225.48935,171.84664 139.04447,41.009369" />
</svg>
